<svg xmlns="http://www.w3.org/2000/svg" width="90.03mm" height="32.91mm" viewBox="0 0 255.2 93.3">
  <defs>
    <style>
      .cls-1 {
        fill: #fff;
      }
    </style>
  </defs>
  <g id="Ebene_2" data-name="Ebene 2">
    <g id="Ebene_1-2" data-name="Ebene 1">
      <g>
        <rect class="cls-1" x="210.06" y="31.42" width="45.14" height="3.76"/>
        <g>
          <path class="cls-1" d="M8.33,35.18H3.67V0H26.41V4.12H8.33V15.43H23.62v4.12H8.33Z"/>
          <path class="cls-1" d="M43.07,9.46v4.45a10.59,10.59,0,0,0-2.16-.19,6.16,6.16,0,0,0-4.8,2.11,7.51,7.51,0,0,0-1.91,5.34v14H29.79V9.55H34.2v4.36a7.61,7.61,0,0,1,7.11-4.55C41.89,9.36,42.48,9.41,43.07,9.46Z"/>
          <path class="cls-1" d="M48.26,31.75a14.33,14.33,0,0,1-3.13-9.36,14.48,14.48,0,0,1,3.09-9.31,11.11,11.11,0,0,1,8.72-4,9.9,9.9,0,0,1,8,3.43,13.6,13.6,0,0,1,2.94,9.12v1.47H49.34c.25,5.34,3.28,8.82,7.79,8.82A6.44,6.44,0,0,0,63.8,27l3.87,1.37a10.57,10.57,0,0,1-10.54,7.35A11.22,11.22,0,0,1,48.26,31.75Zm1.33-12H63.4c-.14-4.17-2.54-6.86-6.51-6.86C53.12,12.84,50.37,15.39,49.59,19.7Z"/>
          <path class="cls-1" d="M74.38,31.6a15.35,15.35,0,0,1-2.79-9.21,15.56,15.56,0,0,1,2.74-9.21,10.16,10.16,0,0,1,8.43-4.12,9.21,9.21,0,0,1,7.94,4.22V9.55h4.41V44H90.7V31.46a9,9,0,0,1-7.94,4.26A10,10,0,0,1,74.38,31.6ZM90.79,21.51c0-5.29-3-8.57-7.25-8.57-4.65,0-7.49,3.72-7.49,9.45s2.94,9.46,7.49,9.46c4.27,0,7.25-3.29,7.25-8.53Z"/>
          <path class="cls-1" d="M121.81,9.55V35.18H117.4V31.65a9,9,0,0,1-7.59,4.07c-5.29,0-8.58-3.58-8.58-9.21v-17h4.41v16c0,4,1.82,6.07,5.34,6.07a6.23,6.23,0,0,0,4.56-1.86A6.71,6.71,0,0,0,117.4,25V9.55Z"/>
          <path class="cls-1" d="M130.49,31.75a14.28,14.28,0,0,1-3.14-9.36,14.48,14.48,0,0,1,3.09-9.31,11.11,11.11,0,0,1,8.72-4,9.9,9.9,0,0,1,8,3.43,13.6,13.6,0,0,1,2.94,9.12v1.47H131.56c.25,5.34,3.29,8.82,7.79,8.82A6.44,6.44,0,0,0,146,27l3.87,1.37a10.57,10.57,0,0,1-10.54,7.35A11.19,11.19,0,0,1,130.49,31.75Zm1.32-12h13.81c-.14-4.17-2.54-6.86-6.51-6.86C135.34,12.84,132.59,15.39,131.81,19.7Z"/>
          <path class="cls-1" d="M155.57,35.18V9.55H160V13a9.12,9.12,0,0,1,7.65-4c5.24,0,8.52,3.58,8.52,9.22v16.9h-4.41V19.45c0-4.06-1.86-6.27-5.34-6.27a6.26,6.26,0,0,0-4.56,1.91,6.56,6.56,0,0,0-1.86,4.8V35.18Z"/>
          <path class="cls-1" d="M201.73,31.41v3.77H181.54V31.85l14.8-18.52h-14.6V9.55h19.84v3.39l-14.5,18.47Z"/>
        </g>
        <g>
          <path class="cls-1" d="M5.68,82.21A13.59,13.59,0,0,1,0,76.52l3.67-3A12,12,0,0,0,14.4,80.28c4.85,0,8.09-2.53,8.09-6.34,0-2.18-1-3.61-3.43-4.65-.49-.2-1.08-.4-1.72-.59s-2.05-.55-4.26-1.09c-4.16-1-6-1.74-7.49-2.73a7.56,7.56,0,0,1-3.53-6.83,9.54,9.54,0,0,1,3.72-7.67,13.19,13.19,0,0,1,8.28-2.62c5.69,0,10.34,2.62,12.64,7l-3.57,2.87c-2-3.91-5.05-5.74-9.17-5.74-4.31,0-7.35,2.42-7.35,5.79,0,2,.93,3.21,2.94,4.2a33.9,33.9,0,0,0,5.3,1.54c2.74.64,4.6,1.19,5.63,1.53a14.1,14.1,0,0,1,2.69,1.24c2.7,1.63,3.92,4,3.92,7.38a10,10,0,0,1-4,8.06,14.37,14.37,0,0,1-8.77,2.78A18,18,0,0,1,5.68,82.21Z"/>
          <path class="cls-1" d="M34.89,77.65V61.77h-4V58h4V50.38h4.36V58h5.83v3.82H39.25V77c0,2.33.83,3.22,3.57,3.22a11.72,11.72,0,0,0,2.8-.3v3.81a18.84,18.84,0,0,1-3.87.4C36.85,84.09,34.89,82.16,34.89,77.65Z"/>
          <path class="cls-1" d="M58.26,84.29a9.2,9.2,0,0,1-6.08-2,6.88,6.88,0,0,1-2.35-5.4c0-4.4,2.84-7,9.7-8.46l6.23-1.29V66c0-3-1.72-4.65-5.05-4.65-3.14,0-5.15,1.44-5.93,4.4l-4.16-1.08c1.32-4.41,5.19-7.23,10.24-7.23,5.93,0,9.26,3,9.26,8.36V78.45c0,1.58,1,2.22,2.74,1.83v3.56c-4,.55-6.17-.49-6.71-2.92A9.79,9.79,0,0,1,58.26,84.29Zm5.49-5.2a5.07,5.07,0,0,0,2-4.06V70.58l-5,1.09c-4.9,1-6.57,2.42-6.57,5s1.72,4,4.61,4A7.82,7.82,0,0,0,63.75,79.09Z"/>
          <path class="cls-1" d="M100.3,81.52a11.58,11.58,0,0,1-3.23,8.61,11.8,11.8,0,0,1-8.68,3.17c-5.68,0-9.8-2.68-11.17-7.38l4.12-1.58a6.8,6.8,0,0,0,7,5.24c4.9,0,7.5-2.72,7.5-7.72V78.94a8.83,8.83,0,0,1-7.84,4.31,10.3,10.3,0,0,1-8.28-3.91,14.76,14.76,0,0,1-2.84-9,14.49,14.49,0,0,1,2.84-9,10.15,10.15,0,0,1,8.28-3.91,8.81,8.81,0,0,1,7.84,4.31V58h4.41ZM95.94,69.93c0-5.19-2.94-8.56-7.11-8.56-4.65,0-7.49,3.46-7.49,9s2.94,9,7.49,9c4.17,0,7.11-3.32,7.11-8.47Z"/>
          <path class="cls-1" d="M108.78,80.38a14.52,14.52,0,0,1-3.14-9.46,14.72,14.72,0,0,1,3.09-9.4,11.05,11.05,0,0,1,8.72-4.06,9.88,9.88,0,0,1,8,3.46,13.83,13.83,0,0,1,2.94,9.21v1.49H109.85c.25,5.39,3.29,8.91,7.8,8.91a6.44,6.44,0,0,0,6.66-5L128.18,77a10.57,10.57,0,0,1-10.53,7.43A11.17,11.17,0,0,1,108.78,80.38ZM110.1,68.2h13.82c-.15-4.21-2.55-6.93-6.52-6.93C113.63,61.27,110.88,63.84,110.1,68.2Z"/>
          <path class="cls-1" d="M132.74,78.35l3.43-2.53A8.58,8.58,0,0,0,144,80.67c3.38,0,5.63-1.53,5.63-4.1,0-1.54-.68-2.48-2.45-3.07a7.1,7.1,0,0,0-1.22-.35c-.44-.15-1.47-.35-3-.69-1.81-.4-3.09-.74-3.87-1a11.41,11.41,0,0,1-2-1,5.5,5.5,0,0,1-2.74-5.2A6.88,6.88,0,0,1,137,59.69a10.11,10.11,0,0,1,6.76-2.23c4.46,0,8.33,2.13,9.9,5.35l-3.14,2.52a7.45,7.45,0,0,0-7-4.21c-2.94,0-4.9,1.49-4.9,3.81,0,1.34.63,2.13,2.15,2.73a37.13,37.13,0,0,0,3.68.94c2.2.54,3.62.94,4.36,1.18a9.1,9.1,0,0,1,2,.85A5.85,5.85,0,0,1,154,76.17a7.21,7.21,0,0,1-2.84,5.89,10.93,10.93,0,0,1-7.1,2.33C139,84.39,134.55,82.11,132.74,78.35Z"/>
        </g>
      </g>
    </g>
  </g>
</svg>
