<?xml version="1.0" encoding="utf-8"?>
<!-- Generator: Adobe Illustrator 24.0.1, SVG Export Plug-In . SVG Version: 6.00 Build 0)  -->
<svg version="1.1" id="Ebene_1" xmlns="http://www.w3.org/2000/svg" xmlns:xlink="http://www.w3.org/1999/xlink" x="0px" y="0px"
	 viewBox="0 0 73 85.1" style="enable-background:new 0 0 73 85.1;" xml:space="preserve">
<style type="text/css">
	.st0{fill:#FFFFFF;}
	.st1{fill:none;}
</style>
<g>
	<g>
		<path class="st0" d="M3.9,35.4V0h22.9v4.1H8.6v11.4H24v4.1H8.6v15.7H3.9z"/>
	</g>
	<g>
		<path class="st0" d="M26.9,50.5v10.2h-1.6L24.5,56c-0.6-3.2-1.3-3.3-5.5-3.3H8.4V66H21v2.4H8.4v13.6c0,0.8,0.4,1,1.3,1.1l4.3,0.2
			v1.7H0v-1.6l2.7-0.2c1,0,1.3-0.3,1.3-1.1V53.4c0-0.8-0.3-1-1.3-1.1L0,52.1v-1.6H26.9z"/>
	</g>
	<rect x="27.9" y="31.2" class="st0" width="45.1" height="4.2"/>
</g>
<rect x="362" y="27.2" width="45.1" height="3.8"/>
<g>
	<path d="M153.5,30.9V-4.5h22.9v4.1h-18.2v11.4h15.4v4.1h-15.4v15.7H153.5z"/>
	<path d="M192.7,9.5c-0.7-0.1-1.3-0.2-2.2-0.2c-3.7,0-6.8,3-6.8,7.5v14.1h-4.4V5.1h4.4v4.4c1.1-2.6,3.6-4.6,7.2-4.6
		c0.7,0,1.3,0,1.8,0.1V9.5z"/>
	<path d="M194.8,18.1c0-7.7,4.9-13.4,11.9-13.4c7.2,0,11,5.5,11,12.6v1.5H199c0.2,5.4,3.4,8.9,7.8,8.9c3.5,0,5.9-1.9,6.7-4.9
		l3.9,1.4c-1.6,4.6-5.5,7.4-10.6,7.4C199.7,31.5,194.8,26,194.8,18.1z M199.3,15.3h13.9c-0.1-3.6-2.1-6.9-6.6-6.9
		C202.9,8.4,200.1,11,199.3,15.3z"/>
	<path d="M221.4,18.1c0-7.3,4.1-13.4,11.2-13.4c3.6,0,6.5,1.7,8,4.2V5.1h4.4v34.7h-4.4V27.2c-1.5,2.6-4.4,4.3-8,4.3
		C225.5,31.5,221.4,25.4,221.4,18.1z M233.4,8.5c-4.8,0-7.5,3.9-7.5,9.5c0,5.5,2.7,9.5,7.5,9.5c3.6,0,7.3-2.7,7.3-8.6v-1.8
		C240.7,11.2,237.1,8.5,233.4,8.5z"/>
	<path d="M272.9,30.9h-4.4v-3.6c-1.5,2.2-4,4.1-7.6,4.1c-5.5,0-8.6-3.8-8.6-9.3V5.1h4.4v16.1c0,3.6,1.6,6.1,5.4,6.1
		c3.2,0,6.5-2.4,6.5-6.7V5.1h4.4V30.9z"/>
	<path d="M278.5,18.1c0-7.7,4.9-13.4,11.9-13.4c7.2,0,11,5.5,11,12.6v1.5h-18.6c0.2,5.4,3.4,8.9,7.8,8.9c3.5,0,5.9-1.9,6.7-4.9
		l3.9,1.4c-1.6,4.6-5.5,7.4-10.6,7.4C283.4,31.5,278.5,26,278.5,18.1z M283,15.3h13.9c-0.1-3.6-2.1-6.9-6.6-6.9
		C286.6,8.4,283.8,11,283,15.3z"/>
	<path d="M306.9,5.1h4.4v3.5c1.5-2.1,4-4,7.7-4c5.5,0,8.6,3.8,8.6,9.3v17h-4.4V15.1c0-3.6-1.5-6.3-5.4-6.3c-3.2,0-6.5,2.5-6.5,6.8
		v15.4h-4.4V5.1z"/>
	<path d="M353.4,30.9h-20.3v-3.4L348,8.9h-14.7V5.1h20v3.4l-14.6,18.6h14.7V30.9z"/>
</g>
<g>
	<path d="M176.3,44.7v10.2h-1.6l-0.8-4.7c-0.6-3.2-1.3-3.3-5.5-3.3h-10.7v13.3h12.7v2.4h-12.7v13.6c0,0.8,0.4,1,1.3,1.1l4.3,0.2v1.7
		h-14v-1.6l2.7-0.2c1,0,1.3-0.3,1.3-1.1V47.6c0-0.8-0.3-1-1.3-1.1l-2.7-0.2v-1.6H176.3z"/>
	<path d="M196,71.3h4.1c-0.9,5.7-6,8.6-11.1,8.6c-8,0-11.9-6.2-11.9-13.4c0-7.8,4.9-13.4,11.9-13.4c5.5,0,11.4,3.9,11.4,13.5h-19
		c0.1,6.2,2.3,10.8,7.8,10.8C193.1,77.6,195.6,75.4,196,71.3z M181.5,64.5H196c-0.1-6.3-3.3-9-7.1-9C185,55.5,181.9,58.5,181.5,64.5
		z"/>
	<path d="M215,77.6c3.7,0,6.5-1.9,6.5-4.4c0-2.7-2.3-4.1-6.5-5l-3.1-0.6c-4.2-0.9-7.2-3.3-7.2-7.2c0-4.2,3.7-7.2,9.6-7.2
		c5.2,0,9.6,2.3,10.3,7.3h-4.1c-0.4-3.4-3.1-5.1-6.6-5.1c-2.9,0-5.6,1.5-5.6,4.2c0,2.2,1.9,3.6,5,4.2l2.8,0.6c4.8,1,9.1,3,9.1,7.5
		c0,5.1-4.4,7.9-10.3,7.9c-7.3,0-10.6-3.9-11-8.6h4.2C208.5,75.5,211.1,77.6,215,77.6z"/>
	<path d="M244.4,56.1h-7.7v16.6c0,3.3,0.9,3.9,3.5,3.9h4v2.8h-5c-5,0-6.5-1.1-6.5-6.3V56.1H228v-2.4h4.6v-8.2h4.1v8.2h7.7V56.1z"/>
	<path d="M256.1,58.4v18.1c0,0.9,0.4,1,1.4,1.1l1.9,0.2v1.6h-10.7v-1.6l2-0.2c0.9-0.1,1.3-0.2,1.3-1.1V56.7c0-0.8-0.2-1.1-1.3-1.2
		l-2-0.2v-1.5h7.5L256.1,58.4z M252,43.8h4.1v5.7H252V43.8z"/>
	<path d="M263.8,56.9c-0.3-1-0.6-1.5-1.7-1.6l-1.3-0.1v-1.6h10.4v1.6l-1.7,0.1c-1.1,0.1-1.6,0.2-1.2,1.3l5.6,17.2l5.5-15.2
		c0.7-1.8,1.2-3.1-1-3.3l-1.1-0.1v-1.6h8.9v1.6l-1.2,0.1c-1.4,0.1-1.8,0.6-2.5,2.4l-8.2,21.6H272L263.8,56.9z"/>
	<path d="M303,61.5c0-4.6-2-6.1-5.6-6.1c-4.4,0-5.6,2.8-5.9,5.7h-4.1c0.3-4.8,4.4-7.9,10.1-7.9c6.6,0,9.8,2.3,9.7,8.5
		c0,3.3-0.1,5.5-0.1,8.2c0,2.6,0,3.9,0.1,6.3c0,0.9,0.2,1,1.2,1.1l2,0.2v1.6l-6.8,0.4l-0.2-4.8h-0.1c-1.4,3-4.1,5.2-8.7,5.2
		c-4.5,0-8-2.7-8-7c0-6.1,7.1-7.5,16.3-8.6V61.5z M303.1,66.4c-6.5,0.7-12.1,1.4-12.1,6.4c0,2.5,1.9,4.6,5.1,4.6
		c3.9,0,6.9-2.8,6.9-9.4V66.4z"/>
	<path d="M321.5,43.8l0,4.8v27.9c0,0.9,0.4,1,1.4,1.1l1.9,0.2v1.6h-10.7v-1.6l1.9-0.2c1-0.1,1.4-0.2,1.4-1.1V46.6
		c0-0.9-0.4-1-1.4-1.1l-1.9-0.2v-1.6H321.5z"/>
	<path d="M365.1,43.8l0,4.8v27.7c0,0.9,0.4,1,1.3,1.1l2,0.2v1.6l-6.9,0.4l-0.2-4.9h-0.1c-1.6,3-4.1,5.3-8.2,5.3
		c-5.9,0-10.3-5.5-10.3-13.4c0-8.1,5-13.4,11.1-13.4c3.7,0,6.2,2.3,7.4,4.6h0.1c-0.1-2.7-0.1-3.7-0.1-4v-7.2c0-0.9-0.4-1-1.4-1
		l-2.5-0.2v-1.6H365.1z M354.2,55.8c-4.1,0-7.3,3.9-7.3,10.8c0,7,3.3,10.8,7.2,10.8c3.4,0,7.2-2.9,7.2-10.8
		C361.3,58.5,358.1,55.8,354.2,55.8z"/>
	<path d="M389.7,71.3h4.1c-0.9,5.7-6,8.6-11.1,8.6c-8,0-11.9-6.2-11.9-13.4c0-7.8,4.9-13.4,11.9-13.4c5.5,0,11.4,3.9,11.4,13.5h-19
		c0.1,6.2,2.3,10.8,7.8,10.8C386.8,77.6,389.3,75.4,389.7,71.3z M375.2,64.5h14.5c-0.1-6.3-3.3-9-7.1-9
		C378.8,55.5,375.6,58.5,375.2,64.5z"/>
	<path d="M404.6,58.8L404.6,58.8c1.2-3.1,3.8-5.3,7.4-5.3h2.6v3.8h-3.8c-4.2,0-6.2,2.1-6.2,7.2v12c0,0.9,0.4,1,1.4,1.1l4.2,0.2v1.6
		h-13v-1.6l2-0.2c0.9-0.1,1.3-0.2,1.3-1.1V56.7c0-0.8-0.2-1.1-1.3-1.2l-2-0.2v-1.5h7.3L404.6,58.8z"/>
	<path d="M439.1,63l14-13.8c1.7-1.7,1.5-2.5,0-2.6l-2.6-0.2v-1.6h11.9v1.6l-1.5,0.1c-1.9,0.1-2.6,0.8-5.9,3.9l-8.4,8l11.7,17
		c0.9,1.3,1.8,2.1,3.8,2.2l1.5,0.1v1.6h-13.5v-1.6l2.3-0.2c1.7-0.1,1.7-0.6,0.4-2.5l-9.3-13.7l-4.6,4.4v10.7c0,0.8,0.4,1,1.3,1.1
		l2.7,0.2v1.6h-12.4v-1.6l2.7-0.2c1,0,1.3-0.3,1.3-1.1V47.6c0-0.8-0.3-1-1.3-1.1l-2.7-0.2v-1.6h12.4v1.6l-2.7,0.2
		c-0.9,0-1.3,0.3-1.3,1.1V63z"/>
	<path d="M473,43.8l0,4.8v27.9c0,0.9,0.4,1,1.4,1.1l1.9,0.2v1.6h-10.7v-1.6l1.9-0.2c1-0.1,1.4-0.2,1.4-1.1V46.6c0-0.9-0.4-1-1.4-1.1
		l-1.9-0.2v-1.6H473z"/>
	<path d="M496.4,61.5c0-4.6-2-6.1-5.6-6.1c-4.4,0-5.6,2.8-5.9,5.7h-4.1c0.3-4.8,4.4-7.9,10.1-7.9c6.6,0,9.8,2.3,9.7,8.5
		c0,3.3-0.1,5.5-0.1,8.2c0,2.6,0,3.9,0.1,6.3c0,0.9,0.2,1,1.2,1.1l2,0.2v1.6l-6.8,0.4l-0.2-4.8h-0.1c-1.4,3-4.1,5.2-8.7,5.2
		c-4.5,0-8-2.7-8-7c0-6.1,7.1-7.5,16.3-8.6V61.5z M496.6,66.4c-6.5,0.7-12.1,1.4-12.1,6.4c0,2.5,1.9,4.6,5.1,4.6
		c3.9,0,6.9-2.8,6.9-9.4V66.4z"/>
	<path d="M530.4,76.5c0,0.9,0.4,1,1.4,1.1l1.9,0.2v1.6H523v-1.6l2-0.2c0.9-0.1,1.3-0.2,1.3-1.1V62.8c0-4.5-1.4-6.9-5.1-6.9
		c-2.3,0-6.6,1.8-6.6,8.4v12.1c0,0.9,0.4,1,1.4,1.1l1.9,0.2v1.6h-10.7v-1.6l2-0.2c0.9-0.1,1.3-0.2,1.3-1.1V56.7
		c0-0.8-0.2-1.1-1.3-1.2l-2-0.2v-1.5h7.3l0,4.7h0.1c1.5-3.1,4.3-5.1,8.4-5.1c5.9,0,7.4,4.6,7.4,8.6V76.5z"/>
	<path d="M555,56.1c1.3,1.4,2,3.3,2,5.8c0,5-3.5,9.1-9.7,9.1c-0.9,0-1.7-0.1-2.5-0.2c-1.5,0.2-3,0.8-3,2.2c0,1.2,0.9,1.9,4.2,2.1
		l6,0.4c6.7,0.4,8.6,2.6,8.6,5.5c0,3.9-3.7,7.9-13.1,7.9c-6.8,0-11.2-2.5-11.2-6c0-2.5,2.9-3.9,6-4.5c-3.4-0.8-4.3-2.5-4.3-4.2
		c0-2,2-3.2,5-3.9c-3.2-1.2-5.6-4-5.6-7.9c0-6.2,4.8-9,10.1-9c1.6,0,3.2,0.3,4.6,0.9l9.9-0.4v2.4H555z M543.9,78.5
		c-2.3,0.7-4.2,1.9-4.2,3.8c0,2.7,2.6,4.1,8.2,4.1c5.3,0,9.2-1.4,9.2-4.2c0-2-1.3-2.8-5.7-3.1l-6-0.3L543.9,78.5z M553.1,61.9
		c0-4.1-2.2-6.5-5.6-6.5c-3.5,0-6,2.1-6,6.8c0,4.3,3,6.5,6,6.5C550.8,68.7,553.1,66.3,553.1,61.9z"/>
	<path d="M571.5,43.8l0,4.8v18.1l8.3-9c1.9-2.1,1.9-2.3-0.1-2.4l-1.7,0v-1.6h10.2v1.6l-0.7,0c-2.2,0.1-2.8,0.2-4.3,1.8l-5.6,5.9
		l6.9,11.7c1.5,2.4,2.5,2.9,4.4,3l0.9,0v1.6h-7.1l-8-13.4l-3.3,3.4v7.1c0,0.9,0.4,1,1.4,1.1l1.9,0.2v1.6h-10.7v-1.6l1.9-0.2
		c1-0.1,1.4-0.2,1.4-1.1V46.6c0-0.9-0.4-1-1.4-1.1l-1.9-0.2v-1.6H571.5z"/>
	<path d="M609.3,74.8L609.3,74.8c-1.6,3.1-4.1,5.1-8.1,5.1c-5.7,0-7-4.6-7-8.6V56.7c0-0.8-0.2-1.1-1.3-1.2l-2-0.2v-1.5h7.5l0,4.7v12
		c0,4.5,1.1,6.9,4.8,6.9c2.3,0,6.2-1.8,6.2-8.4V56.7c0-0.8-0.3-1.1-1.4-1.2l-2-0.2v-1.5h7.5l0,4.7v17.9c0,0.9,0.4,1,1.3,1.1l2,0.2
		v1.6l-7.2,0.4L609.3,74.8z"/>
	<path d="M643.4,76.5c0,0.9,0.4,1,1.4,1.1l1.9,0.2v1.6H636v-1.6l2-0.2c0.9-0.1,1.3-0.2,1.3-1.1V62.8c0-4.5-1.4-6.9-5.1-6.9
		c-2.3,0-6.6,1.8-6.6,8.4v12.1c0,0.9,0.4,1,1.4,1.1l1.9,0.2v1.6h-10.7v-1.6l2-0.2c0.9-0.1,1.3-0.2,1.3-1.1V56.7
		c0-0.8-0.2-1.1-1.3-1.2l-2-0.2v-1.5h7.3l0,4.7h0.1c1.5-3.1,4.3-5.1,8.4-5.1c5.9,0,7.4,4.6,7.4,8.6V76.5z"/>
	<path d="M660.2,77.6c3.7,0,6.5-1.9,6.5-4.4c0-2.7-2.3-4.1-6.5-5l-3.1-0.6c-4.3-0.9-7.2-3.3-7.2-7.2c0-4.2,3.7-7.2,9.6-7.2
		c5.2,0,9.6,2.3,10.3,7.3h-4.1c-0.4-3.4-3.1-5.1-6.6-5.1c-2.9,0-5.6,1.5-5.6,4.2c0,2.2,1.9,3.6,5,4.2l2.8,0.6c4.8,1,9.1,3,9.1,7.5
		c0,5.1-4.4,7.9-10.3,7.9c-7.3,0-10.6-3.9-11-8.6h4.2C653.7,75.5,656.3,77.6,660.2,77.6z"/>
	<path d="M688.7,56.1H681v16.6c0,3.3,0.9,3.9,3.5,3.9h4v2.8h-5c-5,0-6.5-1.1-6.5-6.3V56.1h-4.6v-2.4h4.6v-8.2h4.1v8.2h7.7V56.1z"/>
</g>
<rect x="361.3" y="197.5" width="45.1" height="3.8"/>
<g>
	<path d="M152.8,201.3v-35.4h22.9v4.1h-18.2v11.4h15.4v4.1h-15.4v15.7H152.8z"/>
	<path d="M191.9,179.8c-0.7-0.1-1.3-0.2-2.2-0.2c-3.7,0-6.8,3-6.8,7.5v14.1h-4.4v-25.8h4.4v4.4c1.1-2.6,3.6-4.6,7.2-4.6
		c0.7,0,1.3,0,1.8,0.1V179.8z"/>
	<path d="M194,188.4c0-7.7,4.9-13.4,11.9-13.4c7.2,0,11,5.5,11,12.6v1.5h-18.6c0.2,5.4,3.4,8.9,7.8,8.9c3.5,0,5.9-1.9,6.7-4.9
		l3.9,1.4c-1.6,4.6-5.5,7.4-10.6,7.4C198.9,201.8,194,196.3,194,188.4z M198.5,185.7h13.9c-0.1-3.6-2.1-6.9-6.6-6.9
		C202.1,178.8,199.3,181.3,198.5,185.7z"/>
	<path d="M220.6,188.4c0-7.3,4.1-13.4,11.2-13.4c3.6,0,6.5,1.7,8,4.2v-3.7h4.4v34.7h-4.4v-12.6c-1.5,2.6-4.4,4.3-8,4.3
		C224.7,201.8,220.6,195.7,220.6,188.4z M232.7,178.9c-4.8,0-7.5,3.9-7.5,9.5c0,5.5,2.7,9.5,7.5,9.5c3.6,0,7.3-2.7,7.3-8.6v-1.8
		C240,181.5,236.3,178.9,232.7,178.9z"/>
	<path d="M272.2,201.3h-4.4v-3.6c-1.5,2.2-4,4.1-7.6,4.1c-5.5,0-8.6-3.8-8.6-9.3v-17.1h4.4v16.1c0,3.6,1.6,6.1,5.4,6.1
		c3.2,0,6.5-2.4,6.5-6.7v-15.5h4.4V201.3z"/>
	<path d="M277.7,188.4c0-7.7,4.9-13.4,11.9-13.4c7.2,0,11,5.5,11,12.6v1.5H282c0.2,5.4,3.4,8.9,7.8,8.9c3.5,0,5.9-1.9,6.7-4.9
		l3.9,1.4c-1.6,4.6-5.5,7.4-10.6,7.4C282.7,201.8,277.7,196.3,277.7,188.4z M282.2,185.7h13.9c-0.1-3.6-2.1-6.9-6.6-6.9
		C285.8,178.8,283,181.3,282.2,185.7z"/>
	<path d="M306.1,175.5h4.4v3.5c1.5-2.1,4-4,7.7-4c5.5,0,8.6,3.8,8.6,9.3v17h-4.4v-15.8c0-3.6-1.5-6.3-5.4-6.3
		c-3.2,0-6.5,2.5-6.5,6.8v15.4h-4.4V175.5z"/>
	<path d="M352.6,201.3h-20.3v-3.4l14.9-18.6h-14.7v-3.8h20v3.4l-14.6,18.6h14.7V201.3z"/>
</g>
<g>
	<path d="M175.1,215v10.2h-1.6l-0.8-4.7c-0.6-3.2-1.3-3.3-5.5-3.3H157v13.3h13.2v2.4H157v14.4h10.6c4.1,0,4.8,0,5.4-3.4l0.8-4.6h1.6
		v10.2h-26.8V248l2.7-0.2c1,0,1.3-0.3,1.3-1.1V218c0-0.8-0.3-1-1.3-1.1l-2.7-0.2V215H175.1z"/>
	<path d="M202.2,214.1l0,4.8v27.7c0,0.9,0.4,1,1.3,1.1l2,0.2v1.6l-6.9,0.4l-0.2-4.9h-0.1c-1.6,3-4.1,5.3-8.2,5.3
		c-5.9,0-10.3-5.5-10.3-13.4c0-8.1,5-13.4,11.1-13.4c3.7,0,6.2,2.3,7.4,4.6h0.1c-0.1-2.7-0.1-3.7-0.1-4V217c0-0.9-0.4-1-1.4-1
		l-2.5-0.2v-1.6H202.2z M191.4,226.1c-4.1,0-7.3,3.9-7.3,10.8c0,7,3.3,10.8,7.2,10.8c3.4,0,7.2-2.9,7.2-10.8
		C198.5,228.8,195.3,226.1,191.4,226.1z"/>
	<path d="M226.4,245.1L226.4,245.1c-1.6,3.1-4.1,5.1-8.1,5.1c-5.7,0-7-4.6-7-8.6V227c0-0.8-0.2-1.1-1.3-1.2l-2-0.2V224h7.5l0,4.7v12
		c0,4.5,1.1,6.9,4.8,6.9c2.3,0,6.2-1.8,6.2-8.4V227c0-0.8-0.3-1.1-1.4-1.2l-2-0.2V224h7.5l0,4.7v17.9c0,0.9,0.4,1,1.3,1.1l2,0.2v1.6
		l-7.2,0.4L226.4,245.1z"/>
	<path d="M248.7,223.6c5.4,0,10,2.9,10.9,8.6h-4.1c-0.4-4-2.7-6.2-6.7-6.2c-5.8,0-7.5,5.9-7.5,11c0,5.1,1.7,11,7.5,11
		c4,0,6.3-2.2,6.8-6.2h4.2c-0.9,5.8-5.6,8.6-11,8.6c-7.2,0-11.8-5.7-11.8-13.4C236.9,229.2,241.5,223.6,248.7,223.6z"/>
	<path d="M280.1,231.8c0-4.6-2-6.1-5.6-6.1c-4.4,0-5.6,2.8-5.9,5.7h-4.1c0.3-4.8,4.4-7.9,10.1-7.9c6.6,0,9.8,2.3,9.7,8.5
		c0,3.3-0.1,5.5-0.1,8.2c0,2.6,0,3.9,0.1,6.3c0,0.9,0.2,1,1.2,1.1l2,0.2v1.6l-6.8,0.4l-0.2-4.8h-0.1c-1.4,3-4.1,5.2-8.7,5.2
		c-4.5,0-8-2.7-8-7c0-6.1,7.1-7.5,16.3-8.6V231.8z M280.2,236.8c-6.5,0.7-12.1,1.4-12.1,6.4c0,2.5,1.9,4.6,5.1,4.6
		c3.9,0,6.9-2.8,6.9-9.4V236.8z"/>
	<path d="M304.3,226.4h-7.7V243c0,3.3,0.9,3.9,3.5,3.9h4v2.8h-5c-5,0-6.5-1.1-6.5-6.3v-16.9h-4.6V224h4.6v-8.2h4.1v8.2h7.7V226.4z"
		/>
	<path d="M315.2,228.7v18.1c0,0.9,0.4,1,1.4,1.1l1.9,0.2v1.6h-10.7v-1.6l2-0.2c0.9-0.1,1.3-0.2,1.3-1.1V227c0-0.8-0.2-1.1-1.3-1.2
		l-2-0.2V224h7.5L315.2,228.7z M311.2,214.1h4.1v5.7h-4.1V214.1z"/>
	<path d="M333.6,250.3c-6.8,0-11.9-5.3-11.9-13.4c0-8,5.1-13.4,11.9-13.4c6.8,0,11.9,5.3,11.9,13.4
		C345.5,244.9,340.5,250.3,333.6,250.3z M333.6,247.9c4.2,0,7.5-3.5,7.5-11c0-7.5-3.3-11-7.5-11s-7.5,3.5-7.5,11
		C326.2,244.4,329.4,247.9,333.6,247.9z"/>
	<path d="M372.2,246.8c0,0.9,0.4,1,1.4,1.1l1.9,0.2v1.6h-10.7v-1.6l2-0.2c0.9-0.1,1.3-0.2,1.3-1.1v-13.6c0-4.5-1.4-6.9-5.1-6.9
		c-2.3,0-6.6,1.8-6.6,8.4v12.1c0,0.9,0.4,1,1.4,1.1l1.9,0.2v1.6H349v-1.6l2-0.2c0.9-0.1,1.3-0.2,1.3-1.1V227c0-0.8-0.2-1.1-1.3-1.2
		l-2-0.2V224h7.3l0,4.7h0.1c1.5-3.1,4.3-5.1,8.4-5.1c5.9,0,7.4,4.6,7.4,8.6V246.8z"/>
</g>
<rect x="2473.7" y="194.9" width="45.1" height="3.8"/>
<g>
	<path d="M2269.2,198.7v-35.4h22.9v4.1h-18.2v11.4h15.4v4.1h-15.4v15.7H2269.2z"/>
	<path d="M2308.4,177.3c-0.7-0.1-1.3-0.2-2.2-0.2c-3.7,0-6.8,3-6.8,7.5v14.1h-4.4v-25.8h4.4v4.4c1.1-2.6,3.6-4.6,7.2-4.6
		c0.7,0,1.3,0,1.8,0.1V177.3z"/>
	<path d="M2310.4,185.8c0-7.7,4.9-13.4,11.9-13.4c7.2,0,11,5.5,11,12.6v1.5h-18.6c0.2,5.4,3.4,8.9,7.8,8.9c3.5,0,5.9-1.9,6.7-4.9
		l3.9,1.4c-1.6,4.6-5.5,7.4-10.6,7.4C2315.4,199.2,2310.4,193.8,2310.4,185.8z M2314.9,183.1h13.9c-0.1-3.6-2.1-6.9-6.6-6.9
		C2318.5,176.2,2315.7,178.7,2314.9,183.1z"/>
	<path d="M2337.1,185.8c0-7.3,4.1-13.4,11.2-13.4c3.6,0,6.5,1.7,8,4.2v-3.7h4.4v34.7h-4.4v-12.6c-1.5,2.6-4.4,4.3-8,4.3
		C2341.2,199.2,2337.1,193.1,2337.1,185.8z M2356.4,184.9c0-6-3.7-8.6-7.3-8.6c-4.8,0-7.5,3.9-7.5,9.5c0,5.5,2.7,9.5,7.5,9.5
		c3.6,0,7.3-2.7,7.3-8.6V184.9z"/>
	<path d="M2388.6,198.7h-4.4v-3.6c-1.5,2.2-4,4.1-7.6,4.1c-5.5,0-8.6-3.8-8.6-9.3v-17.1h4.4V189c0,3.6,1.6,6.1,5.4,6.1
		c3.2,0,6.5-2.4,6.5-6.7v-15.5h4.4V198.7z"/>
	<path d="M2394.2,185.8c0-7.7,4.9-13.4,11.9-13.4c7.2,0,11,5.5,11,12.6v1.5h-18.6c0.2,5.4,3.4,8.9,7.8,8.9c3.5,0,5.9-1.9,6.7-4.9
		l3.9,1.4c-1.6,4.6-5.5,7.4-10.6,7.4C2399.1,199.2,2394.2,193.8,2394.2,185.8z M2398.7,183.1h13.9c-0.1-3.6-2.1-6.9-6.6-6.9
		C2402.3,176.2,2399.5,178.7,2398.7,183.1z"/>
	<path d="M2422.6,172.9h4.4v3.5c1.5-2.1,4-4,7.7-4c5.5,0,8.6,3.8,8.6,9.3v17h-4.4v-15.8c0-3.6-1.5-6.3-5.4-6.3
		c-3.2,0-6.5,2.5-6.5,6.8v15.4h-4.4V172.9z"/>
	<path d="M2469,198.7h-20.3v-3.4l14.9-18.6h-14.7v-3.8h20v3.4l-14.6,18.6h14.7V198.7z"/>
</g>
<g>
	<path d="M2291.6,212.5v10.2h-1.6l-0.8-4.7c-0.6-3.2-1.3-3.3-5.5-3.3h-10.2V228h13.2v2.4h-13.2v14.4h10.6c4.1,0,4.8,0,5.4-3.4
		l0.9-4.6h1.6v10.2h-26.8v-1.6l2.7-0.2c1,0,1.3-0.3,1.3-1.1v-28.8c0-0.8-0.3-1-1.3-1.1l-2.7-0.2v-1.6H2291.6z"/>
	<path d="M2318.7,211.5l0,4.8V244c0,0.9,0.4,1,1.3,1.1l2,0.2v1.6l-6.9,0.4l-0.2-4.9h-0.1c-1.6,3-4.1,5.3-8.2,5.3
		c-5.9,0-10.3-5.5-10.3-13.4c0-8.1,5-13.4,11.1-13.4c3.7,0,6.2,2.3,7.4,4.6h0.1c-0.1-2.7-0.1-3.7-0.1-4v-7.2c0-0.9-0.4-1-1.4-1
		l-2.5-0.2v-1.6H2318.7z M2307.9,223.5c-4.1,0-7.3,3.9-7.3,10.8c0,7,3.3,10.8,7.2,10.8c3.4,0,7.2-2.9,7.2-10.8
		C2314.9,226.3,2311.7,223.5,2307.9,223.5z"/>
	<path d="M2342.9,242.6L2342.9,242.6c-1.6,3.1-4.1,5.1-8.1,5.1c-5.7,0-7-4.6-7-8.6v-14.7c0-0.8-0.2-1.1-1.3-1.2l-2-0.2v-1.5h7.5
		l0,4.7v12c0,4.5,1.1,6.9,4.8,6.9c2.3,0,6.2-1.8,6.2-8.4v-12.2c0-0.8-0.3-1.1-1.4-1.2l-2-0.2v-1.5h7.5l0,4.7V244
		c0,0.9,0.4,1,1.3,1.1l2,0.2v1.6l-7.2,0.4L2342.9,242.6z"/>
	<path d="M2365.1,221c5.4,0,10,2.9,10.9,8.6h-4.1c-0.4-4-2.7-6.2-6.7-6.2c-5.8,0-7.5,5.9-7.5,11c0,5.1,1.7,11,7.5,11
		c4,0,6.3-2.2,6.8-6.2h4.2c-0.9,5.8-5.6,8.6-11,8.6c-7.2,0-11.8-5.7-11.8-13.4C2353.3,226.6,2357.9,221,2365.1,221z"/>
	<path d="M2396.5,229.2c0-4.6-2-6.1-5.6-6.1c-4.4,0-5.6,2.8-5.9,5.7h-4.1c0.3-4.8,4.4-7.9,10.1-7.9c6.6,0,9.8,2.3,9.7,8.5
		c0,3.3-0.1,5.5-0.1,8.2c0,2.6,0,3.9,0.1,6.3c0,0.9,0.2,1,1.2,1.1l2,0.2v1.6l-6.8,0.4l-0.2-4.8h-0.1c-1.4,3-4.1,5.2-8.7,5.2
		c-4.5,0-8-2.7-8-7c0-6.1,7.1-7.5,16.3-8.6V229.2z M2396.7,234.2c-6.5,0.7-12.1,1.4-12.1,6.4c0,2.5,1.9,4.6,5.1,4.6
		c3.9,0,6.9-2.8,6.9-9.4V234.2z"/>
	<path d="M2420.8,223.8h-7.7v16.6c0,3.3,0.9,3.9,3.5,3.9h4v2.8h-5c-5,0-6.5-1.1-6.5-6.3v-16.9h-4.6v-2.4h4.6v-8.2h4.1v8.2h7.7V223.8
		z"/>
	<path d="M2431.7,226.1v18.1c0,0.9,0.4,1,1.4,1.1l1.9,0.2v1.6h-10.7v-1.6l2-0.2c0.9-0.1,1.3-0.2,1.3-1.1v-19.8
		c0-0.8-0.2-1.1-1.3-1.2l-2-0.2v-1.5h7.5L2431.7,226.1z M2427.6,211.5h4.1v5.7h-4.1V211.5z"/>
	<path d="M2450.1,247.7c-6.8,0-11.9-5.3-11.9-13.4c0-8,5.1-13.4,11.9-13.4c6.8,0,11.9,5.3,11.9,13.4
		C2461.9,242.3,2456.9,247.7,2450.1,247.7z M2450.1,245.3c4.2,0,7.5-3.5,7.5-11c0-7.5-3.3-11-7.5-11s-7.5,3.5-7.5,11
		C2442.6,241.9,2445.9,245.3,2450.1,245.3z"/>
	<path d="M2488.6,244.2c0,0.9,0.4,1,1.4,1.1l1.9,0.2v1.6h-10.7v-1.6l2-0.2c0.9-0.1,1.3-0.2,1.3-1.1v-13.6c0-4.5-1.4-6.9-5.1-6.9
		c-2.3,0-6.6,1.8-6.6,8.4v12.1c0,0.9,0.4,1,1.4,1.1l1.9,0.2v1.6h-10.7v-1.6l2-0.2c0.9-0.1,1.3-0.2,1.3-1.1v-19.8
		c0-0.8-0.2-1.1-1.3-1.2l-2-0.2v-1.5h7.3l0,4.7h0.1c1.5-3.1,4.3-5.1,8.4-5.1c5.9,0,7.4,4.6,7.4,8.6V244.2z"/>
</g>
<rect x="2262.5" y="160.2" class="st1" width="552.9" height="86.8"/>
<rect x="2474.8" y="28.9" width="45.1" height="3.8"/>
<g>
	<path d="M2270.3,32.7V-2.7h22.9v4.1H2275v11.4h15.4v4.1H2275v15.7H2270.3z"/>
	<path d="M2309.5,11.3c-0.7-0.1-1.3-0.2-2.2-0.2c-3.7,0-6.8,3-6.8,7.5v14.1h-4.4V6.9h4.4v4.4c1.1-2.6,3.6-4.6,7.2-4.6
		c0.7,0,1.3,0,1.8,0.1V11.3z"/>
	<path d="M2311.5,19.8c0-7.7,4.9-13.4,11.9-13.4c7.2,0,11,5.5,11,12.6v1.5h-18.6c0.2,5.4,3.4,8.9,7.8,8.9c3.5,0,5.9-1.9,6.7-4.9
		l3.9,1.4c-1.6,4.6-5.5,7.4-10.6,7.4C2316.5,33.2,2311.5,27.7,2311.5,19.8z M2316,17.1h13.9c-0.1-3.6-2.1-6.9-6.6-6.9
		C2319.6,10.2,2316.8,12.7,2316,17.1z"/>
	<path d="M2338.2,19.8c0-7.3,4.1-13.4,11.2-13.4c3.6,0,6.5,1.7,8,4.2V6.9h4.4v34.7h-4.4V28.9c-1.5,2.6-4.4,4.3-8,4.3
		C2342.3,33.2,2338.2,27.1,2338.2,19.8z M2357.5,18.9c0-6-3.7-8.6-7.3-8.6c-4.8,0-7.5,3.9-7.5,9.5c0,5.5,2.7,9.5,7.5,9.5
		c3.6,0,7.3-2.7,7.3-8.6V18.9z"/>
	<path d="M2389.7,32.7h-4.4v-3.6c-1.5,2.2-4,4.1-7.6,4.1c-5.5,0-8.6-3.8-8.6-9.3V6.9h4.4V23c0,3.6,1.6,6.1,5.4,6.1
		c3.2,0,6.5-2.4,6.5-6.7V6.9h4.4V32.7z"/>
	<path d="M2395.3,19.8c0-7.7,4.9-13.4,11.9-13.4c7.2,0,11,5.5,11,12.6v1.5h-18.6c0.2,5.4,3.4,8.9,7.8,8.9c3.5,0,5.9-1.9,6.7-4.9
		l3.9,1.4c-1.6,4.6-5.5,7.4-10.6,7.4C2400.2,33.2,2395.3,27.7,2395.3,19.8z M2399.8,17.1h13.9c-0.1-3.6-2.1-6.9-6.6-6.9
		C2403.4,10.2,2400.6,12.7,2399.8,17.1z"/>
	<path d="M2423.7,6.9h4.4v3.5c1.5-2.1,4-4,7.7-4c5.5,0,8.6,3.8,8.6,9.3v17h-4.4V16.8c0-3.6-1.5-6.3-5.4-6.3c-3.2,0-6.5,2.5-6.5,6.8
		v15.4h-4.4V6.9z"/>
	<path d="M2470.1,32.7h-20.3v-3.4l14.9-18.6H2450V6.9h20v3.4l-14.6,18.6h14.7V32.7z"/>
</g>
<g>
	<path d="M2708.6,20.1c4.8-4,8.6-7.4,8.6-12c0-4.3-2.8-7.3-7.2-7.3c-4.2,0-7.2,3.3-7.2,7.3c0,1.3,0.3,2.6,0.8,3.8h-4.4
		c-0.5-1.5-0.8-2.7-0.8-4.1c0-6.3,5.2-11.1,11.7-11.1c7.2,0,11.7,4.5,11.7,11c0,6-4.1,10.2-9.2,14.3l-8,6.5h17.9v4.1h-24.4v-3.9
		L2708.6,20.1z"/>
	<path d="M2739.4-3.3c8.4,0,13.5,7.4,13.5,18.2c0,10.8-5.1,18.2-13.5,18.2c-8.4,0-13.5-7.4-13.5-18.2
		C2725.9,4.2,2731-3.3,2739.4-3.3z M2739.4,29.1c5.7,0,8.8-5.8,8.8-14.1c0-8.3-3.1-14.1-8.8-14.1c-5.8,0-8.8,5.8-8.8,14.1
		C2730.6,23.3,2733.6,29.1,2739.4,29.1z"/>
	<path d="M2766.9,20.1c4.8-4,8.6-7.4,8.6-12c0-4.3-2.8-7.3-7.2-7.3c-4.2,0-7.2,3.3-7.2,7.3c0,1.3,0.3,2.6,0.8,3.8h-4.4
		c-0.5-1.5-0.8-2.7-0.8-4.1c0-6.3,5.2-11.1,11.7-11.1c7.2,0,11.7,4.5,11.7,11c0,6-4.1,10.2-9.2,14.3l-8,6.5h17.9v4.1h-24.4v-3.9
		L2766.9,20.1z"/>
	<path d="M2798.7-2.9v35.6h-4.7v-26h-8.5V3.1l3.8-0.2c4.2-0.3,5.6-1.7,5.9-5.8H2798.7z"/>
</g>
<g>
	<path d="M2293.1,46.5v10.2h-1.6l-0.8-4.7c-0.6-3.2-1.3-3.3-5.5-3.3h-10.7V62h12.7v2.4h-12.7v13.6c0,0.8,0.4,1,1.3,1.1l4.3,0.2v1.7
		h-14v-1.6l2.7-0.2c1,0,1.3-0.3,1.3-1.1V49.4c0-0.8-0.3-1-1.3-1.1l-2.7-0.2v-1.6H2293.1z"/>
	<path d="M2312.7,73.1h4.1c-0.9,5.7-6,8.6-11.1,8.6c-8,0-11.9-6.2-11.9-13.4c0-7.8,4.9-13.4,11.9-13.4c5.5,0,11.4,3.9,11.4,13.5h-19
		c0.1,6.2,2.3,10.8,7.8,10.8C2309.8,79.3,2312.3,77.1,2312.7,73.1z M2298.2,66.2h14.5c-0.1-6.3-3.3-9-7.1-9
		C2301.8,57.2,2298.6,60.3,2298.2,66.2z"/>
	<path d="M2331.7,79.3c3.7,0,6.5-1.9,6.5-4.4c0-2.7-2.3-4.1-6.5-5l-3.1-0.6c-4.2-0.9-7.2-3.3-7.2-7.2c0-4.2,3.7-7.2,9.6-7.2
		c5.2,0,9.6,2.3,10.3,7.3h-4.1c-0.4-3.4-3.1-5.1-6.6-5.1c-2.9,0-5.6,1.5-5.6,4.2c0,2.2,1.9,3.6,5,4.2l2.8,0.6c4.8,1,9.1,3,9.1,7.5
		c0,5.1-4.4,7.9-10.3,7.9c-7.3,0-10.6-3.9-11-8.6h4.2C2325.2,77.2,2327.9,79.3,2331.7,79.3z"/>
	<path d="M2361.1,57.8h-7.7v16.6c0,3.3,0.9,3.9,3.5,3.9h4v2.8h-5c-5,0-6.5-1.1-6.5-6.3V57.8h-4.6v-2.4h4.6v-8.2h4.1v8.2h7.7V57.8z"
		/>
	<path d="M2372.8,60.1v18.1c0,0.9,0.4,1,1.4,1.1l1.9,0.2v1.6h-10.7v-1.6l2-0.2c0.9-0.1,1.3-0.2,1.3-1.1V58.4c0-0.8-0.2-1.1-1.3-1.2
		l-2-0.2v-1.5h7.5L2372.8,60.1z M2368.8,45.5h4.1v5.7h-4.1V45.5z"/>
	<path d="M2380.5,58.6c-0.3-1-0.6-1.5-1.7-1.6l-1.3-0.1v-1.6h10.4V57l-1.7,0.1c-1.1,0.1-1.6,0.2-1.2,1.3l5.6,17.2l5.5-15.2
		c0.7-1.8,1.2-3.1-1-3.3L2394,57v-1.6h8.9V57l-1.2,0.1c-1.4,0.1-1.8,0.6-2.5,2.4l-8.2,21.6h-2.2L2380.5,58.6z"/>
	<path d="M2419.7,63.2c0-4.6-2-6.1-5.6-6.1c-4.4,0-5.6,2.8-5.9,5.7h-4.1c0.3-4.8,4.4-7.9,10.1-7.9c6.6,0,9.8,2.3,9.7,8.5
		c0,3.3-0.1,5.5-0.1,8.2c0,2.6,0,3.9,0.1,6.3c0,0.9,0.2,1,1.2,1.1l2,0.2v1.6l-6.8,0.4l-0.2-4.8h-0.1c-1.4,3-4.1,5.2-8.7,5.2
		c-4.5,0-8-2.7-8-7c0-6.1,7.1-7.5,16.3-8.6V63.2z M2419.9,68.2c-6.5,0.7-12.1,1.4-12.1,6.4c0,2.5,1.9,4.6,5.1,4.6
		c3.9,0,6.9-2.8,6.9-9.4V68.2z"/>
	<path d="M2438.2,45.5l0,4.8v27.9c0,0.9,0.4,1,1.4,1.1l1.9,0.2v1.6h-10.7v-1.6l1.9-0.2c1-0.1,1.4-0.2,1.4-1.1V48.4
		c0-0.9-0.4-1-1.4-1.1l-1.9-0.2v-1.6H2438.2z"/>
	<path d="M2481.8,45.5l0,4.8V78c0,0.9,0.4,1,1.3,1.1l2,0.2v1.6l-6.9,0.4l-0.2-4.9h-0.1c-1.6,3-4.1,5.3-8.2,5.3
		c-5.9,0-10.3-5.5-10.3-13.4c0-8.1,5-13.4,11.1-13.4c3.7,0,6.2,2.3,7.4,4.6h0.1c-0.1-2.7-0.1-3.7-0.1-4v-7.2c0-0.9-0.4-1-1.4-1
		l-2.5-0.2v-1.6H2481.8z M2471,57.5c-4.1,0-7.3,3.9-7.3,10.8c0,7,3.3,10.8,7.2,10.8c3.4,0,7.2-2.9,7.2-10.8
		C2478,60.3,2474.9,57.5,2471,57.5z"/>
	<path d="M2506.5,73.1h4.1c-0.9,5.7-6,8.6-11.1,8.6c-8,0-11.9-6.2-11.9-13.4c0-7.8,4.9-13.4,11.9-13.4c5.5,0,11.4,3.9,11.4,13.5h-19
		c0.1,6.2,2.3,10.8,7.8,10.8C2503.5,79.3,2506,77.1,2506.5,73.1z M2492,66.2h14.5c-0.1-6.3-3.3-9-7.1-9
		C2495.5,57.2,2492.3,60.3,2492,66.2z"/>
	<path d="M2521.4,60.5L2521.4,60.5c1.2-3.1,3.8-5.3,7.4-5.3h2.6V59h-3.8c-4.2,0-6.2,2.1-6.2,7.2v12c0,0.9,0.4,1,1.4,1.1l4.2,0.2v1.6
		h-13v-1.6l2-0.2c0.9-0.1,1.3-0.2,1.3-1.1V58.4c0-0.8-0.2-1.1-1.3-1.2l-2-0.2v-1.5h7.3L2521.4,60.5z"/>
	<path d="M2555.8,64.7l14-13.8c1.7-1.7,1.5-2.5,0-2.6l-2.6-0.2v-1.6h11.9v1.6l-1.5,0.1c-1.9,0.1-2.6,0.8-5.9,3.9l-8.4,8l11.7,17
		c0.9,1.3,1.8,2.1,3.8,2.2l1.5,0.1v1.6h-13.5v-1.6l2.3-0.2c1.7-0.1,1.7-0.6,0.4-2.5l-9.3-13.7l-4.6,4.4v10.7c0,0.8,0.4,1,1.3,1.1
		l2.7,0.2v1.6h-12.4v-1.6l2.7-0.2c1,0,1.3-0.3,1.3-1.1V49.4c0-0.8-0.3-1-1.3-1.1l-2.7-0.2v-1.6h12.4v1.6l-2.7,0.2
		c-0.9,0-1.3,0.3-1.3,1.1V64.7z"/>
	<path d="M2589.8,45.5l0,4.8v27.9c0,0.9,0.4,1,1.4,1.1l1.9,0.2v1.6h-10.7v-1.6l1.9-0.2c1-0.1,1.4-0.2,1.4-1.1V48.4
		c0-0.9-0.4-1-1.4-1.1l-1.9-0.2v-1.6H2589.8z"/>
	<path d="M2613.2,63.2c0-4.6-2-6.1-5.6-6.1c-4.4,0-5.6,2.8-5.9,5.7h-4.1c0.3-4.8,4.4-7.9,10.1-7.9c6.6,0,9.8,2.3,9.7,8.5
		c0,3.3-0.1,5.5-0.1,8.2c0,2.6,0,3.9,0.1,6.3c0,0.9,0.2,1,1.2,1.1l2,0.2v1.6l-6.8,0.4l-0.2-4.8h-0.1c-1.4,3-4.1,5.2-8.7,5.2
		c-4.5,0-8-2.7-8-7c0-6.1,7.1-7.5,16.3-8.6V63.2z M2613.3,68.2c-6.5,0.7-12.1,1.4-12.1,6.4c0,2.5,1.9,4.6,5.1,4.6
		c3.9,0,6.9-2.8,6.9-9.4V68.2z"/>
	<path d="M2647.1,78.2c0,0.9,0.4,1,1.4,1.1l1.9,0.2v1.6h-10.7v-1.6l2-0.2c0.9-0.1,1.3-0.2,1.3-1.1V64.6c0-4.5-1.4-6.9-5.1-6.9
		c-2.3,0-6.6,1.8-6.6,8.4v12.1c0,0.9,0.4,1,1.4,1.1l1.9,0.2v1.6H2624v-1.6l2-0.2c0.9-0.1,1.3-0.2,1.3-1.1V58.4
		c0-0.8-0.2-1.1-1.3-1.2l-2-0.2v-1.5h7.3l0,4.7h0.1c1.5-3.1,4.3-5.1,8.4-5.1c5.9,0,7.4,4.6,7.4,8.6V78.2z"/>
	<path d="M2671.8,57.8c1.3,1.4,2,3.3,2,5.8c0,5-3.5,9.1-9.7,9.1c-0.9,0-1.7-0.1-2.5-0.2c-1.5,0.2-3,0.8-3,2.2c0,1.2,0.9,1.9,4.2,2.1
		l6,0.4c6.7,0.4,8.6,2.6,8.6,5.5c0,3.9-3.7,7.9-13.1,7.9c-6.8,0-11.2-2.5-11.2-6c0-2.5,2.9-3.9,6-4.5c-3.4-0.8-4.3-2.5-4.3-4.2
		c0-2,2-3.2,5-3.9c-3.2-1.2-5.6-4-5.6-7.9c0-6.2,4.8-9,10.1-9c1.6,0,3.2,0.3,4.6,0.9l9.9-0.4v2.4H2671.8z M2660.6,80.2
		c-2.3,0.7-4.2,1.9-4.2,3.8c0,2.7,2.6,4.1,8.2,4.1c5.3,0,9.2-1.4,9.2-4.2c0-2-1.3-2.8-5.7-3.1l-6-0.3L2660.6,80.2z M2669.9,63.6
		c0-4.1-2.2-6.5-5.6-6.5c-3.5,0-6,2.1-6,6.8c0,4.3,3,6.5,6,6.5C2667.6,70.5,2669.9,68,2669.9,63.6z"/>
	<path d="M2688.3,45.5l0,4.8v18.1l8.3-9c1.9-2.1,1.9-2.3-0.1-2.4l-1.7,0v-1.6h10.2V57l-0.7,0c-2.2,0.1-2.8,0.2-4.3,1.8l-5.6,5.9
		l6.9,11.7c1.5,2.4,2.5,2.9,4.4,3l0.9,0v1.6h-7.1l-8-13.4l-3.3,3.4v7.1c0,0.9,0.4,1,1.4,1.1l1.9,0.2v1.6h-10.7v-1.6l1.9-0.2
		c1-0.1,1.4-0.2,1.4-1.1V48.4c0-0.9-0.4-1-1.4-1.1l-1.9-0.2v-1.6H2688.3z"/>
	<path d="M2726,76.6L2726,76.6c-1.6,3.1-4.1,5.1-8.1,5.1c-5.7,0-7-4.6-7-8.6V58.4c0-0.8-0.2-1.1-1.3-1.2l-2-0.2v-1.5h7.5l0,4.7v12
		c0,4.5,1.1,6.9,4.8,6.9c2.3,0,6.2-1.8,6.2-8.4V58.4c0-0.8-0.3-1.1-1.4-1.2l-2-0.2v-1.5h7.5l0,4.7V78c0,0.9,0.4,1,1.3,1.1l2,0.2v1.6
		l-7.2,0.4L2726,76.6z"/>
	<path d="M2760.1,78.2c0,0.9,0.4,1,1.4,1.1l1.9,0.2v1.6h-10.7v-1.6l2-0.2c0.9-0.1,1.3-0.2,1.3-1.1V64.6c0-4.5-1.4-6.9-5.1-6.9
		c-2.3,0-6.6,1.8-6.6,8.4v12.1c0,0.9,0.4,1,1.4,1.1l1.9,0.2v1.6H2737v-1.6l2-0.2c0.9-0.1,1.3-0.2,1.3-1.1V58.4
		c0-0.8-0.2-1.1-1.3-1.2l-2-0.2v-1.5h7.3l0,4.7h0.1c1.5-3.1,4.3-5.1,8.4-5.1c5.9,0,7.4,4.6,7.4,8.6V78.2z"/>
	<path d="M2776.9,79.3c3.7,0,6.5-1.9,6.5-4.4c0-2.7-2.3-4.1-6.5-5l-3.1-0.6c-4.3-0.9-7.2-3.3-7.2-7.2c0-4.2,3.7-7.2,9.6-7.2
		c5.2,0,9.6,2.3,10.3,7.3h-4.1c-0.4-3.4-3.1-5.1-6.6-5.1c-2.9,0-5.6,1.5-5.6,4.2c0,2.2,1.9,3.6,5,4.2l2.8,0.6c4.8,1,9.1,3,9.1,7.5
		c0,5.1-4.4,7.9-10.3,7.9c-7.3,0-10.6-3.9-11-8.6h4.2C2770.4,77.2,2773.1,79.3,2776.9,79.3z"/>
	<path d="M2805.4,57.8h-7.7v16.6c0,3.3,0.9,3.9,3.5,3.9h4v2.8h-5c-5,0-6.5-1.1-6.5-6.3V57.8h-4.6v-2.4h4.6v-8.2h4.1v8.2h7.7V57.8z"
		/>
</g>
<rect x="2263.6" y="-5.8" class="st1" width="552.9" height="86.8"/>
<rect x="1576.9" y="194.9" width="45.1" height="3.8"/>
<g>
	<path d="M1372.4,198.7v-35.4h22.9v4.1h-18.2v11.4h15.4v4.1h-15.4v15.7H1372.4z"/>
	<path d="M1411.6,177.3c-0.7-0.1-1.3-0.2-2.2-0.2c-3.7,0-6.8,3-6.8,7.5v14.1h-4.4v-25.8h4.4v4.4c1.1-2.6,3.6-4.6,7.2-4.6
		c0.7,0,1.3,0,1.8,0.1V177.3z"/>
	<path d="M1413.7,185.8c0-7.7,4.9-13.4,11.9-13.4c7.2,0,11,5.5,11,12.6v1.5h-18.6c0.2,5.4,3.4,8.9,7.8,8.9c3.5,0,5.9-1.9,6.7-4.9
		l3.9,1.4c-1.6,4.6-5.5,7.4-10.6,7.4C1418.6,199.2,1413.7,193.8,1413.7,185.8z M1418.2,183.1h13.9c-0.1-3.6-2.1-6.9-6.6-6.9
		C1421.8,176.2,1418.9,178.7,1418.2,183.1z"/>
	<path d="M1440.3,185.8c0-7.3,4.1-13.4,11.2-13.4c3.6,0,6.5,1.7,8,4.2v-3.7h4.4v34.7h-4.4v-12.6c-1.5,2.6-4.4,4.3-8,4.3
		C1444.4,199.2,1440.3,193.1,1440.3,185.8z M1459.6,184.9c0-6-3.7-8.6-7.3-8.6c-4.8,0-7.5,3.9-7.5,9.5c0,5.5,2.7,9.5,7.5,9.5
		c3.6,0,7.3-2.7,7.3-8.6V184.9z"/>
	<path d="M1491.8,198.7h-4.4v-3.6c-1.5,2.2-4,4.1-7.6,4.1c-5.5,0-8.6-3.8-8.6-9.3v-17.1h4.4V189c0,3.6,1.6,6.1,5.4,6.1
		c3.2,0,6.5-2.4,6.5-6.7v-15.5h4.4V198.7z"/>
	<path d="M1497.4,185.8c0-7.7,4.9-13.4,11.9-13.4c7.2,0,11,5.5,11,12.6v1.5h-18.6c0.2,5.4,3.4,8.9,7.8,8.9c3.5,0,5.9-1.9,6.7-4.9
		l3.9,1.4c-1.6,4.6-5.5,7.4-10.6,7.4C1502.3,199.2,1497.4,193.8,1497.4,185.8z M1501.9,183.1h13.9c-0.1-3.6-2.1-6.9-6.6-6.9
		C1505.5,176.2,1502.7,178.7,1501.9,183.1z"/>
	<path d="M1525.8,172.9h4.4v3.5c1.5-2.1,4-4,7.7-4c5.5,0,8.6,3.8,8.6,9.3v17h-4.4v-15.8c0-3.6-1.5-6.3-5.4-6.3
		c-3.2,0-6.5,2.5-6.5,6.8v15.4h-4.4V172.9z"/>
	<path d="M1572.3,198.7H1552v-3.4l14.9-18.6h-14.7v-3.8h20v3.4l-14.6,18.6h14.7V198.7z"/>
</g>
<g>
	<path d="M1394.8,212.5v10.2h-1.6l-0.8-4.7c-0.6-3.2-1.3-3.3-5.5-3.3h-10.2V228h13.2v2.4h-13.2v14.4h10.6c4.1,0,4.8,0,5.4-3.4
		l0.9-4.6h1.6v10.2h-26.8v-1.6l2.7-0.2c1,0,1.3-0.3,1.3-1.1v-28.8c0-0.8-0.3-1-1.3-1.1l-2.7-0.2v-1.6H1394.8z"/>
	<path d="M1421.9,211.5l0,4.8V244c0,0.9,0.4,1,1.3,1.1l2,0.2v1.6l-6.9,0.4l-0.2-4.9h-0.1c-1.6,3-4.1,5.3-8.2,5.3
		c-5.9,0-10.3-5.5-10.3-13.4c0-8.1,5-13.4,11.1-13.4c3.7,0,6.2,2.3,7.4,4.6h0.1c-0.1-2.7-0.1-3.7-0.1-4v-7.2c0-0.9-0.4-1-1.4-1
		l-2.5-0.2v-1.6H1421.9z M1411.1,223.5c-4.1,0-7.3,3.9-7.3,10.8c0,7,3.3,10.8,7.2,10.8c3.4,0,7.2-2.9,7.2-10.8
		C1418.1,226.3,1415,223.5,1411.1,223.5z"/>
	<path d="M1446.1,242.6L1446.1,242.6c-1.6,3.1-4.1,5.1-8.1,5.1c-5.7,0-7-4.6-7-8.6v-14.7c0-0.8-0.2-1.1-1.3-1.2l-2-0.2v-1.5h7.5
		l0,4.7v12c0,4.5,1.1,6.9,4.8,6.9c2.3,0,6.2-1.8,6.2-8.4v-12.2c0-0.8-0.3-1.1-1.4-1.2l-2-0.2v-1.5h7.5l0,4.7V244
		c0,0.9,0.4,1,1.3,1.1l2,0.2v1.6l-7.2,0.4L1446.1,242.6z"/>
	<path d="M1468.3,221c5.4,0,10,2.9,10.9,8.6h-4.1c-0.4-4-2.7-6.2-6.7-6.2c-5.8,0-7.5,5.9-7.5,11c0,5.1,1.7,11,7.5,11
		c4,0,6.3-2.2,6.8-6.2h4.2c-0.9,5.8-5.6,8.6-11,8.6c-7.2,0-11.8-5.7-11.8-13.4C1456.5,226.6,1461.2,221,1468.3,221z"/>
	<path d="M1499.7,229.2c0-4.6-2-6.1-5.6-6.1c-4.4,0-5.6,2.8-5.9,5.7h-4.1c0.3-4.8,4.4-7.9,10.1-7.9c6.6,0,9.8,2.3,9.7,8.5
		c0,3.3-0.1,5.5-0.1,8.2c0,2.6,0,3.9,0.1,6.3c0,0.9,0.2,1,1.2,1.1l2,0.2v1.6l-6.8,0.4l-0.2-4.8h-0.1c-1.4,3-4.1,5.2-8.7,5.2
		c-4.5,0-8-2.7-8-7c0-6.1,7.1-7.5,16.3-8.6V229.2z M1499.9,234.2c-6.5,0.7-12.1,1.4-12.1,6.4c0,2.5,1.9,4.6,5.1,4.6
		c3.9,0,6.9-2.8,6.9-9.4V234.2z"/>
	<path d="M1524,223.8h-7.7v16.6c0,3.3,0.9,3.9,3.5,3.9h4v2.8h-5c-5,0-6.5-1.1-6.5-6.3v-16.9h-4.6v-2.4h4.6v-8.2h4.1v8.2h7.7V223.8z"
		/>
	<path d="M1534.9,226.1v18.1c0,0.9,0.4,1,1.4,1.1l1.9,0.2v1.6h-10.7v-1.6l2-0.2c0.9-0.1,1.3-0.2,1.3-1.1v-19.8
		c0-0.8-0.2-1.1-1.3-1.2l-2-0.2v-1.5h7.5L1534.9,226.1z M1530.9,211.5h4.1v5.7h-4.1V211.5z"/>
	<path d="M1553.3,247.7c-6.8,0-11.9-5.3-11.9-13.4c0-8,5.1-13.4,11.9-13.4c6.8,0,11.9,5.3,11.9,13.4
		C1565.2,242.3,1560.1,247.7,1553.3,247.7z M1553.3,245.3c4.2,0,7.5-3.5,7.5-11c0-7.5-3.3-11-7.5-11s-7.5,3.5-7.5,11
		C1545.8,241.9,1549.1,245.3,1553.3,245.3z"/>
	<path d="M1591.8,244.2c0,0.9,0.4,1,1.4,1.1l1.9,0.2v1.6h-10.7v-1.6l2-0.2c0.9-0.1,1.3-0.2,1.3-1.1v-13.6c0-4.5-1.4-6.9-5.1-6.9
		c-2.3,0-6.6,1.8-6.6,8.4v12.1c0,0.9,0.4,1,1.4,1.1l1.9,0.2v1.6h-10.7v-1.6l2-0.2c0.9-0.1,1.3-0.2,1.3-1.1v-19.8
		c0-0.8-0.2-1.1-1.3-1.2l-2-0.2v-1.5h7.3l0,4.7h0.1c1.5-3.1,4.3-5.1,8.4-5.1c5.9,0,7.4,4.6,7.4,8.6V244.2z"/>
</g>
<rect x="1365.8" y="160.2" class="st1" width="552.9" height="86.8"/>
<rect x="1578" y="28.9" width="45.1" height="3.8"/>
<g>
	<path d="M1373.5,32.7V-2.7h22.9v4.1h-18.2v11.4h15.4v4.1h-15.4v15.7H1373.5z"/>
	<path d="M1412.7,11.3c-0.7-0.1-1.3-0.2-2.2-0.2c-3.7,0-6.8,3-6.8,7.5v14.1h-4.4V6.9h4.4v4.4c1.1-2.6,3.6-4.6,7.2-4.6
		c0.7,0,1.3,0,1.8,0.1V11.3z"/>
	<path d="M1414.8,19.8c0-7.7,4.9-13.4,11.9-13.4c7.2,0,11,5.5,11,12.6v1.5H1419c0.2,5.4,3.4,8.9,7.8,8.9c3.5,0,5.9-1.9,6.7-4.9
		l3.9,1.4c-1.6,4.6-5.5,7.4-10.6,7.4C1419.7,33.2,1414.8,27.7,1414.8,19.8z M1419.2,17.1h13.9c-0.1-3.6-2.1-6.9-6.6-6.9
		C1422.8,10.2,1420,12.7,1419.2,17.1z"/>
	<path d="M1441.4,19.8c0-7.3,4.1-13.4,11.2-13.4c3.6,0,6.5,1.7,8,4.2V6.9h4.4v34.7h-4.4V28.9c-1.5,2.6-4.4,4.3-8,4.3
		C1445.5,33.2,1441.4,27.1,1441.4,19.8z M1460.7,18.9c0-6-3.7-8.6-7.3-8.6c-4.8,0-7.5,3.9-7.5,9.5c0,5.5,2.7,9.5,7.5,9.5
		c3.6,0,7.3-2.7,7.3-8.6V18.9z"/>
	<path d="M1492.9,32.7h-4.4v-3.6c-1.5,2.2-4,4.1-7.6,4.1c-5.5,0-8.6-3.8-8.6-9.3V6.9h4.4V23c0,3.6,1.6,6.1,5.4,6.1
		c3.2,0,6.5-2.4,6.5-6.7V6.9h4.4V32.7z"/>
	<path d="M1498.5,19.8c0-7.7,4.9-13.4,11.9-13.4c7.2,0,11,5.5,11,12.6v1.5h-18.6c0.2,5.4,3.4,8.9,7.8,8.9c3.5,0,5.9-1.9,6.7-4.9
		l3.9,1.4c-1.6,4.6-5.5,7.4-10.6,7.4C1503.4,33.2,1498.5,27.7,1498.5,19.8z M1503,17.1h13.9c-0.1-3.6-2.1-6.9-6.6-6.9
		C1506.6,10.2,1503.8,12.7,1503,17.1z"/>
	<path d="M1526.9,6.9h4.4v3.5c1.5-2.1,4-4,7.7-4c5.5,0,8.6,3.8,8.6,9.3v17h-4.4V16.8c0-3.6-1.5-6.3-5.4-6.3c-3.2,0-6.5,2.5-6.5,6.8
		v15.4h-4.4V6.9z"/>
	<path d="M1573.4,32.7H1553v-3.4l14.9-18.6h-14.7V6.9h20v3.4l-14.6,18.6h14.7V32.7z"/>
</g>
<g>
	<path d="M1396.3,46.5v10.2h-1.6l-0.8-4.7c-0.6-3.2-1.3-3.3-5.5-3.3h-10.7V62h12.7v2.4h-12.7v13.6c0,0.8,0.4,1,1.3,1.1l4.3,0.2v1.7
		h-14v-1.6l2.7-0.2c1,0,1.3-0.3,1.3-1.1V49.4c0-0.8-0.3-1-1.3-1.1l-2.7-0.2v-1.6H1396.3z"/>
	<path d="M1416,73.1h4.1c-0.9,5.7-6,8.6-11.1,8.6c-8,0-11.9-6.2-11.9-13.4c0-7.8,4.9-13.4,11.9-13.4c5.5,0,11.4,3.9,11.4,13.5h-19
		c0.1,6.2,2.3,10.8,7.8,10.8C1413,79.3,1415.5,77.1,1416,73.1z M1401.5,66.2h14.5c-0.1-6.3-3.3-9-7.1-9
		C1405,57.2,1401.8,60.3,1401.5,66.2z"/>
	<path d="M1435,79.3c3.7,0,6.5-1.9,6.5-4.4c0-2.7-2.3-4.1-6.5-5l-3.1-0.6c-4.2-0.9-7.2-3.3-7.2-7.2c0-4.2,3.7-7.2,9.6-7.2
		c5.2,0,9.6,2.3,10.3,7.3h-4.1c-0.4-3.4-3.1-5.1-6.6-5.1c-2.9,0-5.6,1.5-5.6,4.2c0,2.2,1.9,3.6,5,4.2l2.8,0.6c4.8,1,9.1,3,9.1,7.5
		c0,5.1-4.4,7.9-10.3,7.9c-7.3,0-10.6-3.9-11-8.6h4.2C1428.4,77.2,1431.1,79.3,1435,79.3z"/>
	<path d="M1464.4,57.8h-7.7v16.6c0,3.3,0.9,3.9,3.5,3.9h4v2.8h-5c-5,0-6.5-1.1-6.5-6.3V57.8h-4.6v-2.4h4.6v-8.2h4.1v8.2h7.7V57.8z"
		/>
	<path d="M1476,60.1v18.1c0,0.9,0.4,1,1.4,1.1l1.9,0.2v1.6h-10.7v-1.6l2-0.2c0.9-0.1,1.3-0.2,1.3-1.1V58.4c0-0.8-0.2-1.1-1.3-1.2
		l-2-0.2v-1.5h7.5L1476,60.1z M1472,45.5h4.1v5.7h-4.1V45.5z"/>
	<path d="M1483.7,58.6c-0.3-1-0.6-1.5-1.7-1.6l-1.3-0.1v-1.6h10.4V57l-1.7,0.1c-1.1,0.1-1.6,0.2-1.2,1.3l5.6,17.2l5.5-15.2
		c0.7-1.8,1.2-3.1-1-3.3l-1.1-0.1v-1.6h8.9V57l-1.2,0.1c-1.4,0.1-1.8,0.6-2.5,2.4l-8.2,21.6h-2.2L1483.7,58.6z"/>
	<path d="M1522.9,63.2c0-4.6-2-6.1-5.6-6.1c-4.4,0-5.6,2.8-5.9,5.7h-4.1c0.3-4.8,4.4-7.9,10.1-7.9c6.6,0,9.8,2.3,9.7,8.5
		c0,3.3-0.1,5.5-0.1,8.2c0,2.6,0,3.9,0.1,6.3c0,0.9,0.2,1,1.2,1.1l2,0.2v1.6l-6.8,0.4l-0.2-4.8h-0.1c-1.4,3-4.1,5.2-8.7,5.2
		c-4.5,0-8-2.7-8-7c0-6.1,7.1-7.5,16.3-8.6V63.2z M1523.1,68.2c-6.5,0.7-12.1,1.4-12.1,6.4c0,2.5,1.9,4.6,5.1,4.6
		c3.9,0,6.9-2.8,6.9-9.4V68.2z"/>
	<path d="M1541.4,45.5l0,4.8v27.9c0,0.9,0.4,1,1.4,1.1l1.9,0.2v1.6H1534v-1.6l1.9-0.2c1-0.1,1.4-0.2,1.4-1.1V48.4
		c0-0.9-0.4-1-1.4-1.1l-1.9-0.2v-1.6H1541.4z"/>
	<path d="M1585,45.5l0,4.8V78c0,0.9,0.4,1,1.3,1.1l2,0.2v1.6l-6.9,0.4l-0.2-4.9h-0.1c-1.6,3-4.1,5.3-8.2,5.3
		c-5.9,0-10.3-5.5-10.3-13.4c0-8.1,5-13.4,11.1-13.4c3.7,0,6.2,2.3,7.4,4.6h0.1c-0.1-2.7-0.1-3.7-0.1-4v-7.2c0-0.9-0.4-1-1.4-1
		l-2.5-0.2v-1.6H1585z M1574.2,57.5c-4.1,0-7.3,3.9-7.3,10.8c0,7,3.3,10.8,7.2,10.8c3.4,0,7.2-2.9,7.2-10.8
		C1581.3,60.3,1578.1,57.5,1574.2,57.5z"/>
	<path d="M1609.7,73.1h4.1c-0.9,5.7-6,8.6-11.1,8.6c-8,0-11.9-6.2-11.9-13.4c0-7.8,4.9-13.4,11.9-13.4c5.5,0,11.4,3.9,11.4,13.5h-19
		c0.1,6.2,2.3,10.8,7.8,10.8C1606.8,79.3,1609.3,77.1,1609.7,73.1z M1595.2,66.2h14.5c-0.1-6.3-3.3-9-7.1-9
		C1598.7,57.2,1595.6,60.3,1595.2,66.2z"/>
	<path d="M1624.6,60.5L1624.6,60.5c1.2-3.1,3.8-5.3,7.4-5.3h2.6V59h-3.8c-4.2,0-6.2,2.1-6.2,7.2v12c0,0.9,0.4,1,1.4,1.1l4.2,0.2v1.6
		h-13v-1.6l2-0.2c0.9-0.1,1.3-0.2,1.3-1.1V58.4c0-0.8-0.2-1.1-1.3-1.2l-2-0.2v-1.5h7.3L1624.6,60.5z"/>
	<path d="M1659,64.7l14-13.8c1.7-1.7,1.5-2.5,0-2.6l-2.6-0.2v-1.6h11.9v1.6l-1.5,0.1c-1.9,0.1-2.6,0.8-5.9,3.9l-8.4,8l11.7,17
		c0.9,1.3,1.8,2.1,3.8,2.2l1.5,0.1v1.6h-13.5v-1.6l2.3-0.2c1.7-0.1,1.7-0.6,0.4-2.5l-9.3-13.7l-4.6,4.4v10.7c0,0.8,0.4,1,1.3,1.1
		l2.7,0.2v1.6h-12.4v-1.6l2.7-0.2c1,0,1.3-0.3,1.3-1.1V49.4c0-0.8-0.3-1-1.3-1.1l-2.7-0.2v-1.6h12.4v1.6l-2.7,0.2
		c-0.9,0-1.3,0.3-1.3,1.1V64.7z"/>
	<path d="M1693,45.5l0,4.8v27.9c0,0.9,0.4,1,1.4,1.1l1.9,0.2v1.6h-10.7v-1.6l1.9-0.2c1-0.1,1.4-0.2,1.4-1.1V48.4
		c0-0.9-0.4-1-1.4-1.1l-1.9-0.2v-1.6H1693z"/>
	<path d="M1716.4,63.2c0-4.6-2-6.1-5.6-6.1c-4.4,0-5.6,2.8-5.9,5.7h-4.1c0.3-4.8,4.4-7.9,10.1-7.9c6.6,0,9.8,2.3,9.7,8.5
		c0,3.3-0.1,5.5-0.1,8.2c0,2.6,0,3.9,0.1,6.3c0,0.9,0.2,1,1.2,1.1l2,0.2v1.6l-6.8,0.4l-0.2-4.8h-0.1c-1.4,3-4.1,5.2-8.7,5.2
		c-4.5,0-8-2.7-8-7c0-6.1,7.1-7.5,16.3-8.6V63.2z M1716.6,68.2c-6.5,0.7-12.1,1.4-12.1,6.4c0,2.5,1.9,4.6,5.1,4.6
		c3.9,0,6.9-2.8,6.9-9.4V68.2z"/>
	<path d="M1750.3,78.2c0,0.9,0.4,1,1.4,1.1l1.9,0.2v1.6H1743v-1.6l2-0.2c0.9-0.1,1.3-0.2,1.3-1.1V64.6c0-4.5-1.4-6.9-5.1-6.9
		c-2.3,0-6.6,1.8-6.6,8.4v12.1c0,0.9,0.4,1,1.4,1.1l1.9,0.2v1.6h-10.7v-1.6l2-0.2c0.9-0.1,1.3-0.2,1.3-1.1V58.4
		c0-0.8-0.2-1.1-1.3-1.2l-2-0.2v-1.5h7.3l0,4.7h0.1c1.5-3.1,4.3-5.1,8.4-5.1c5.9,0,7.4,4.6,7.4,8.6V78.2z"/>
	<path d="M1775,57.8c1.3,1.4,2,3.3,2,5.8c0,5-3.5,9.1-9.7,9.1c-0.9,0-1.7-0.1-2.5-0.2c-1.5,0.2-3,0.8-3,2.2c0,1.2,0.9,1.9,4.2,2.1
		l6,0.4c6.7,0.4,8.6,2.6,8.6,5.5c0,3.9-3.7,7.9-13.1,7.9c-6.8,0-11.2-2.5-11.2-6c0-2.5,2.9-3.9,6-4.5c-3.4-0.8-4.3-2.5-4.3-4.2
		c0-2,2-3.2,5-3.9c-3.2-1.2-5.6-4-5.6-7.9c0-6.2,4.8-9,10.1-9c1.6,0,3.2,0.3,4.6,0.9l9.9-0.4v2.4H1775z M1763.8,80.2
		c-2.3,0.7-4.2,1.9-4.2,3.8c0,2.7,2.6,4.1,8.2,4.1c5.3,0,9.2-1.4,9.2-4.2c0-2-1.3-2.8-5.7-3.1l-6-0.3L1763.8,80.2z M1773.1,63.6
		c0-4.1-2.2-6.5-5.6-6.5c-3.5,0-6,2.1-6,6.8c0,4.3,3,6.5,6,6.5C1770.8,70.5,1773.1,68,1773.1,63.6z"/>
	<path d="M1791.5,45.5l0,4.8v18.1l8.3-9c1.9-2.1,1.9-2.3-0.1-2.4l-1.7,0v-1.6h10.2V57l-0.7,0c-2.2,0.1-2.8,0.2-4.3,1.8l-5.6,5.9
		l6.9,11.7c1.5,2.4,2.5,2.9,4.4,3l0.9,0v1.6h-7.1l-8-13.4l-3.3,3.4v7.1c0,0.9,0.4,1,1.4,1.1l1.9,0.2v1.6h-10.7v-1.6l1.9-0.2
		c1-0.1,1.4-0.2,1.4-1.1V48.4c0-0.9-0.4-1-1.4-1.1l-1.9-0.2v-1.6H1791.5z"/>
	<path d="M1829.3,76.6L1829.3,76.6c-1.6,3.1-4.1,5.1-8.1,5.1c-5.7,0-7-4.6-7-8.6V58.4c0-0.8-0.2-1.1-1.3-1.2l-2-0.2v-1.5h7.5l0,4.7
		v12c0,4.5,1.1,6.9,4.8,6.9c2.3,0,6.2-1.8,6.2-8.4V58.4c0-0.8-0.3-1.1-1.4-1.2l-2-0.2v-1.5h7.5l0,4.7V78c0,0.9,0.4,1,1.3,1.1l2,0.2
		v1.6l-7.2,0.4L1829.3,76.6z"/>
	<path d="M1863.4,78.2c0,0.9,0.4,1,1.4,1.1l1.9,0.2v1.6H1856v-1.6l2-0.2c0.9-0.1,1.3-0.2,1.3-1.1V64.6c0-4.5-1.4-6.9-5.1-6.9
		c-2.3,0-6.6,1.8-6.6,8.4v12.1c0,0.9,0.4,1,1.4,1.1l1.9,0.2v1.6h-10.7v-1.6l2-0.2c0.9-0.1,1.3-0.2,1.3-1.1V58.4
		c0-0.8-0.2-1.1-1.3-1.2l-2-0.2v-1.5h7.3l0,4.7h0.1c1.5-3.1,4.3-5.1,8.4-5.1c5.9,0,7.4,4.6,7.4,8.6V78.2z"/>
	<path d="M1880.2,79.3c3.7,0,6.5-1.9,6.5-4.4c0-2.7-2.3-4.1-6.5-5l-3.1-0.6c-4.3-0.9-7.2-3.3-7.2-7.2c0-4.2,3.7-7.2,9.6-7.2
		c5.2,0,9.6,2.3,10.3,7.3h-4.1c-0.4-3.4-3.1-5.1-6.6-5.1c-2.9,0-5.6,1.5-5.6,4.2c0,2.2,1.9,3.6,5,4.2l2.8,0.6c4.8,1,9.1,3,9.1,7.5
		c0,5.1-4.4,7.9-10.3,7.9c-7.3,0-10.6-3.9-11-8.6h4.2C1873.6,77.2,1876.3,79.3,1880.2,79.3z"/>
	<path d="M1908.6,57.8h-7.7v16.6c0,3.3,0.9,3.9,3.5,3.9h4v2.8h-5c-5,0-6.5-1.1-6.5-6.3V57.8h-4.6v-2.4h4.6v-8.2h4.1v8.2h7.7V57.8z"
		/>
</g>
<rect x="1366.8" y="-5.8" class="st1" width="552.9" height="86.8"/>
<g>
	<g>
		<g>
			<path d="M5.7,201.4V166h22.9v4.1H10.4v11.4h15.4v4.1H10.4v15.7H5.7z"/>
		</g>
		<rect x="-0.7" y="162.9" class="st1" width="75.5" height="88.1"/>
		<rect x="29.7" y="197.2" width="45.1" height="4.2"/>
	</g>
	<g>
		<path d="M27.6,216.5v10.2h-1.6l-0.8-4.7c-0.6-3.2-1.3-3.3-5.4-3.3h-10v13.3h12.9v2.4H9.9v14.4h10.4c4,0,4.7,0,5.3-3.4l0.8-4.6H28
			v10.2H1.7v-1.6l2.6-0.2c1,0,1.3-0.3,1.3-1.1v-28.8c0-0.8-0.3-1-1.3-1.1l-2.6-0.2v-1.6H27.6z"/>
	</g>
</g>
<g>
</g>
<g>
</g>
<g>
</g>
<g>
</g>
<g>
</g>
<g>
</g>
</svg>
