<?xml version="1.0" encoding="utf-8"?>
<!-- Generator: Adobe Illustrator 24.0.1, SVG Export Plug-In . SVG Version: 6.00 Build 0)  -->
<svg version="1.1" id="Ebene_1" xmlns="http://www.w3.org/2000/svg" xmlns:xlink="http://www.w3.org/1999/xlink" x="0px" y="0px"
	 viewBox="0 0 539.2 93.2" style="enable-background:new 0 0 539.2 93.2;" xml:space="preserve">
<style type="text/css">
	.st0{fill:none;}
</style>
<rect x="212.6" y="31.6" width="45.1" height="3.8"/>
<g>
	<path d="M4.1,35.4V0H27v4.1H8.8v11.4h15.4v4.1H8.8v15.7H4.1z"/>
	<path d="M43.3,14c-0.7-0.1-1.3-0.2-2.2-0.2c-3.7,0-6.8,3-6.8,7.5v14.1h-4.4V9.6h4.4V14c1.1-2.6,3.6-4.6,7.2-4.6
		c0.7,0,1.3,0,1.8,0.1V14z"/>
	<path d="M45.4,22.5c0-7.7,4.9-13.4,11.9-13.4c7.2,0,11,5.5,11,12.6v1.5H49.6c0.2,5.4,3.4,8.9,7.8,8.9c3.5,0,5.9-1.9,6.7-4.9
		l3.9,1.4c-1.6,4.6-5.5,7.4-10.6,7.4C50.3,36,45.4,30.5,45.4,22.5z M49.8,19.8h13.9c-0.1-3.6-2.1-6.9-6.6-6.9
		C53.4,12.9,50.6,15.4,49.8,19.8z"/>
	<path d="M72,22.5c0-7.3,4.1-13.4,11.2-13.4c3.6,0,6.5,1.7,8,4.2V9.6h4.4v34.7h-4.4V31.7c-1.5,2.6-4.4,4.3-8,4.3
		C76.1,36,72,29.8,72,22.5z M84,13c-4.8,0-7.5,3.9-7.5,9.5c0,5.5,2.7,9.5,7.5,9.5c3.6,0,7.3-2.7,7.3-8.6v-1.8
		C91.3,15.6,87.7,13,84,13z"/>
	<path d="M123.5,35.4h-4.4v-3.6c-1.5,2.2-4,4.1-7.6,4.1c-5.5,0-8.6-3.8-8.6-9.3V9.6h4.4v16.1c0,3.6,1.6,6.1,5.4,6.1
		c3.2,0,6.5-2.4,6.5-6.7V9.6h4.4V35.4z"/>
	<path d="M129.1,22.5c0-7.7,4.9-13.4,11.9-13.4c7.2,0,11,5.5,11,12.6v1.5h-18.6c0.2,5.4,3.4,8.9,7.8,8.9c3.5,0,5.9-1.9,6.7-4.9
		l3.9,1.4c-1.6,4.6-5.5,7.4-10.6,7.4C134,36,129.1,30.5,129.1,22.5z M133.6,19.8h13.9c-0.1-3.6-2.1-6.9-6.6-6.9
		C137.2,12.9,134.4,15.4,133.6,19.8z"/>
	<path d="M157.5,9.6h4.4v3.5c1.5-2.1,4-4,7.7-4c5.5,0,8.6,3.8,8.6,9.3v17h-4.4V19.6c0-3.6-1.5-6.3-5.4-6.3c-3.2,0-6.5,2.5-6.5,6.8
		v15.4h-4.4V9.6z"/>
	<path d="M204,35.4h-20.3v-3.4l14.9-18.6h-14.7V9.6h20V13l-14.6,18.6H204V35.4z"/>
</g>
<g>
	<path d="M26.9,49.2v10.2h-1.6l-0.8-4.7c-0.6-3.2-1.3-3.3-5.5-3.3H8.4v13.3H21v2.4H8.4v13.6c0,0.8,0.4,1,1.3,1.1l4.3,0.2v1.7H0v-1.6
		L2.7,82c1,0,1.3-0.3,1.3-1.1V52.1c0-0.8-0.3-1-1.3-1.1L0,50.8v-1.6H26.9z"/>
	<path d="M46.6,75.8h4.1c-0.9,5.7-6,8.6-11.1,8.6c-8,0-11.9-6.2-11.9-13.4c0-7.8,4.9-13.4,11.9-13.4c5.5,0,11.4,3.9,11.4,13.5H32
		c0.1,6.2,2.3,10.8,7.8,10.8C43.6,82.1,46.1,79.8,46.6,75.8z M32.1,69h14.5c-0.1-6.3-3.3-9-7.1-9C35.6,59.9,32.4,63,32.1,69z"/>
	<path d="M65.6,82.1c3.7,0,6.5-1.9,6.5-4.4c0-2.7-2.3-4.1-6.5-5L62.5,72c-4.2-0.9-7.2-3.3-7.2-7.2c0-4.2,3.7-7.2,9.6-7.2
		c5.2,0,9.6,2.3,10.3,7.3h-4.1C70.7,61.6,68,60,64.6,60c-2.9,0-5.6,1.5-5.6,4.2c0,2.2,1.9,3.6,5,4.2l2.8,0.6c4.8,1,9.1,3,9.1,7.5
		c0,5.1-4.4,7.9-10.3,7.9c-7.3,0-10.6-3.9-11-8.6h4.2C59,79.9,61.7,82.1,65.6,82.1z"/>
	<path d="M95,60.6h-7.7v16.6c0,3.3,0.9,3.9,3.5,3.9h4v2.8h-5c-5,0-6.5-1.1-6.5-6.3V60.6h-4.6v-2.4h4.6V50h4.1v8.2H95V60.6z"/>
	<path d="M106.6,62.9v18.1c0,0.9,0.4,1,1.4,1.1l1.9,0.2v1.6H99.3v-1.6l2-0.2c0.9-0.1,1.3-0.2,1.3-1.1V61.1c0-0.8-0.2-1.1-1.3-1.2
		l-2-0.2v-1.5h7.5L106.6,62.9z M102.6,48.3h4.1v5.7h-4.1V48.3z"/>
	<path d="M114.3,61.4c-0.3-1-0.6-1.5-1.7-1.6l-1.3-0.1v-1.6h10.4v1.6l-1.7,0.1c-1.1,0.1-1.6,0.2-1.2,1.3l5.6,17.2l5.5-15.2
		c0.7-1.8,1.2-3.1-1-3.3l-1.1-0.1v-1.6h8.9v1.6l-1.2,0.1c-1.4,0.1-1.8,0.6-2.5,2.4l-8.2,21.6h-2.2L114.3,61.4z"/>
	<path d="M153.5,65.9c0-4.6-2-6.1-5.6-6.1c-4.4,0-5.6,2.8-5.9,5.7H138c0.3-4.8,4.4-7.9,10.1-7.9c6.6,0,9.8,2.3,9.7,8.5
		c0,3.3-0.1,5.5-0.1,8.2c0,2.6,0,3.9,0.1,6.3c0,0.9,0.2,1,1.2,1.1l2,0.2v1.6l-6.8,0.4l-0.2-4.8h-0.1c-1.4,3-4.1,5.2-8.7,5.2
		c-4.5,0-8-2.7-8-7c0-6.1,7.1-7.5,16.3-8.6V65.9z M153.7,70.9c-6.5,0.7-12.1,1.4-12.1,6.4c0,2.5,1.9,4.6,5.1,4.6
		c3.9,0,6.9-2.8,6.9-9.4V70.9z"/>
	<path d="M172,48.3l0,4.8v27.9c0,0.9,0.4,1,1.4,1.1l1.9,0.2v1.6h-10.7v-1.6l1.9-0.2c1-0.1,1.4-0.2,1.4-1.1V51.1c0-0.9-0.4-1-1.4-1.1
		l-1.9-0.2v-1.6H172z"/>
	<path d="M215.6,48.3l0,4.8v27.7c0,0.9,0.4,1,1.3,1.1l2,0.2v1.6L212,84l-0.2-4.9h-0.1c-1.6,3-4.1,5.3-8.2,5.3
		c-5.9,0-10.3-5.5-10.3-13.4c0-8.1,5-13.4,11.1-13.4c3.7,0,6.2,2.3,7.4,4.6h0.1c-0.1-2.7-0.1-3.7-0.1-4v-7.2c0-0.9-0.4-1-1.4-1
		l-2.5-0.2v-1.6H215.6z M204.8,60.3c-4.1,0-7.3,3.9-7.3,10.8c0,7,3.3,10.8,7.2,10.8c3.4,0,7.2-2.9,7.2-10.8
		C211.9,63,208.7,60.3,204.8,60.3z"/>
	<path d="M240.3,75.8h4.1c-0.9,5.7-6,8.6-11.1,8.6c-8,0-11.9-6.2-11.9-13.4c0-7.8,4.9-13.4,11.9-13.4c5.5,0,11.4,3.9,11.4,13.5h-19
		c0.1,6.2,2.3,10.8,7.8,10.8C237.4,82.1,239.9,79.8,240.3,75.8z M225.8,69h14.5c-0.1-6.3-3.3-9-7.1-9C229.3,59.9,226.2,63,225.8,69z
		"/>
	<path d="M255.2,63.2L255.2,63.2c1.2-3.1,3.8-5.3,7.4-5.3h2.6v3.8h-3.8c-4.2,0-6.2,2.1-6.2,7.2v12c0,0.9,0.4,1,1.4,1.1l4.2,0.2v1.6
		h-13v-1.6l2-0.2c0.9-0.1,1.3-0.2,1.3-1.1V61.1c0-0.8-0.2-1.1-1.3-1.2l-2-0.2v-1.5h7.3L255.2,63.2z"/>
	<path d="M289.6,67.5l14-13.8c1.7-1.7,1.5-2.5,0-2.6l-2.6-0.2v-1.6h11.9v1.6l-1.5,0.1c-1.9,0.1-2.6,0.8-5.9,3.9l-8.4,8l11.7,17
		c0.9,1.3,1.8,2.1,3.8,2.2l1.5,0.1v1.6h-13.5v-1.6l2.3-0.2c1.7-0.1,1.7-0.6,0.4-2.5l-9.3-13.7l-4.6,4.4v10.7c0,0.8,0.4,1,1.3,1.1
		l2.7,0.2v1.6h-12.4v-1.6L284,82c1,0,1.3-0.3,1.3-1.1V52.1c0-0.8-0.3-1-1.3-1.1l-2.7-0.2v-1.6h12.4v1.6L291,51
		c-0.9,0-1.3,0.3-1.3,1.1V67.5z"/>
	<path d="M323.6,48.3l0,4.8v27.9c0,0.9,0.4,1,1.4,1.1l1.9,0.2v1.6h-10.7v-1.6l1.9-0.2c1-0.1,1.4-0.2,1.4-1.1V51.1
		c0-0.9-0.4-1-1.4-1.1l-1.9-0.2v-1.6H323.6z"/>
	<path d="M347,65.9c0-4.6-2-6.1-5.6-6.1c-4.4,0-5.6,2.8-5.9,5.7h-4.1c0.3-4.8,4.4-7.9,10.1-7.9c6.6,0,9.8,2.3,9.7,8.5
		c0,3.3-0.1,5.5-0.1,8.2c0,2.6,0,3.9,0.1,6.3c0,0.9,0.2,1,1.2,1.1l2,0.2v1.6l-6.8,0.4l-0.2-4.8h-0.1c-1.4,3-4.1,5.2-8.7,5.2
		c-4.5,0-8-2.7-8-7c0-6.1,7.1-7.5,16.3-8.6V65.9z M347.2,70.9c-6.5,0.7-12.1,1.4-12.1,6.4c0,2.5,1.9,4.6,5.1,4.6
		c3.9,0,6.9-2.8,6.9-9.4V70.9z"/>
	<path d="M380.9,80.9c0,0.9,0.4,1,1.4,1.1l1.9,0.2v1.6h-10.7v-1.6l2-0.2c0.9-0.1,1.3-0.2,1.3-1.1V67.3c0-4.5-1.4-6.9-5.1-6.9
		c-2.3,0-6.6,1.8-6.6,8.4v12.1c0,0.9,0.4,1,1.4,1.1l1.9,0.2v1.6h-10.7v-1.6l2-0.2c0.9-0.1,1.3-0.2,1.3-1.1V61.1
		c0-0.8-0.2-1.1-1.3-1.2l-2-0.2v-1.5h7.3l0,4.7h0.1c1.5-3.1,4.3-5.1,8.4-5.1c5.9,0,7.4,4.6,7.4,8.6V80.9z"/>
	<path d="M405.6,60.6c1.3,1.4,2,3.3,2,5.8c0,5-3.5,9.1-9.7,9.1c-0.9,0-1.7-0.1-2.5-0.2c-1.5,0.2-3,0.8-3,2.2c0,1.2,0.9,1.9,4.2,2.1
		l6,0.4c6.7,0.4,8.6,2.6,8.6,5.5c0,3.9-3.7,7.9-13.1,7.9c-6.8,0-11.2-2.5-11.2-6c0-2.5,2.9-3.9,6-4.5c-3.4-0.8-4.3-2.5-4.3-4.2
		c0-2,2-3.2,5-3.9c-3.2-1.2-5.6-4-5.6-7.9c0-6.2,4.8-9,10.1-9c1.6,0,3.2,0.3,4.6,0.9l9.9-0.4v2.4H405.6z M394.4,83
		c-2.3,0.7-4.2,1.9-4.2,3.8c0,2.7,2.6,4.1,8.2,4.1c5.3,0,9.2-1.4,9.2-4.2c0-2-1.3-2.8-5.7-3.1l-6-0.3L394.4,83z M403.7,66.4
		c0-4.1-2.2-6.5-5.6-6.5c-3.5,0-6,2.1-6,6.8c0,4.3,3,6.5,6,6.5C401.4,73.2,403.7,70.8,403.7,66.4z"/>
	<path d="M422.1,48.3l0,4.8v18.1l8.3-9c1.9-2.1,1.9-2.3-0.1-2.4l-1.7,0v-1.6h10.2v1.6l-0.7,0c-2.2,0.1-2.8,0.2-4.3,1.8l-5.6,5.9
		l6.9,11.7c1.5,2.4,2.5,2.9,4.4,3l0.9,0v1.6h-7.1l-8-13.4l-3.3,3.4v7.1c0,0.9,0.4,1,1.4,1.1l1.9,0.2v1.6h-10.7v-1.6l1.9-0.2
		c1-0.1,1.4-0.2,1.4-1.1V51.1c0-0.9-0.4-1-1.4-1.1l-1.9-0.2v-1.6H422.1z"/>
	<path d="M459.9,79.3L459.9,79.3c-1.6,3.1-4.1,5.1-8.1,5.1c-5.7,0-7-4.6-7-8.6V61.1c0-0.8-0.2-1.1-1.3-1.2l-2-0.2v-1.5h7.5l0,4.7v12
		c0,4.5,1.1,6.9,4.8,6.9c2.3,0,6.2-1.8,6.2-8.4V61.1c0-0.8-0.3-1.1-1.4-1.2l-2-0.2v-1.5h7.5l0,4.7v17.9c0,0.9,0.4,1,1.3,1.1l2,0.2
		v1.6l-7.2,0.4L459.9,79.3z"/>
	<path d="M494,80.9c0,0.9,0.4,1,1.4,1.1l1.9,0.2v1.6h-10.7v-1.6l2-0.2c0.9-0.1,1.3-0.2,1.3-1.1V67.3c0-4.5-1.4-6.9-5.1-6.9
		c-2.3,0-6.6,1.8-6.6,8.4v12.1c0,0.9,0.4,1,1.4,1.1l1.9,0.2v1.6h-10.7v-1.6l2-0.2c0.9-0.1,1.3-0.2,1.3-1.1V61.1
		c0-0.8-0.2-1.1-1.3-1.2l-2-0.2v-1.5h7.3l0,4.7h0.1c1.5-3.1,4.3-5.1,8.4-5.1c5.9,0,7.4,4.6,7.4,8.6V80.9z"/>
	<path d="M510.8,82.1c3.7,0,6.5-1.9,6.5-4.4c0-2.7-2.3-4.1-6.5-5l-3.1-0.6c-4.3-0.9-7.2-3.3-7.2-7.2c0-4.2,3.7-7.2,9.6-7.2
		c5.2,0,9.6,2.3,10.3,7.3h-4.1c-0.4-3.4-3.1-5.1-6.6-5.1c-2.9,0-5.6,1.5-5.6,4.2c0,2.2,1.9,3.6,5,4.2l2.8,0.6c4.8,1,9.1,3,9.1,7.5
		c0,5.1-4.4,7.9-10.3,7.9c-7.3,0-10.6-3.9-11-8.6h4.2C504.2,79.9,506.9,82.1,510.8,82.1z"/>
	<path d="M539.2,60.6h-7.7v16.6c0,3.3,0.9,3.9,3.5,3.9h4v2.8h-5c-5,0-6.5-1.1-6.5-6.3V60.6h-4.6v-2.4h4.6V50h4.1v8.2h7.7V60.6z"/>
</g>
</svg>
