<?xml version="1.0" encoding="utf-8"?>
<!-- Generator: Adobe Illustrator 24.0.1, SVG Export Plug-In . SVG Version: 6.00 Build 0)  -->
<svg version="1.1" id="Ebene_1" xmlns="http://www.w3.org/2000/svg" xmlns:xlink="http://www.w3.org/1999/xlink" x="0px" y="0px"
	 viewBox="0 0 92.1 33.1" style="enable-background:new 0 0 92.1 33.1;" xml:space="preserve">
<style type="text/css">
	.st0{fill:#FFFFFF;}
	.st1{opacity:0.5;}
	.st2{opacity:0.5;fill:#FFFFFF;}
</style>
<g>
	<g>
		<g>
			<path class="st0" d="M46,9.2c0.6,0,1.3,0.1,2,0.4l-0.2,0.6C47.1,10,46.5,9.9,46,9.9c-0.9,0-1.5,0.4-1.5,1c0,1.6,3.6,0.7,3.6,3
				c0,1-0.9,1.7-2.2,1.7c-0.6,0-1.4-0.2-2.2-0.5l0.2-0.6c0.7,0.3,1.4,0.5,1.9,0.5c0.9,0,1.5-0.4,1.5-1.1c0-1.7-3.6-0.8-3.6-3
				C43.8,9.9,44.7,9.2,46,9.2z"/>
			<path class="st0" d="M51,12.8c0.3,0,0.6,0,1,0.1v-0.5c0-0.6-0.4-1-1.1-1c-0.5,0-1,0.1-1.5,0.3l-0.2-0.5c0.6-0.2,1.2-0.4,1.8-0.4
				c1,0,1.7,0.6,1.7,1.5v2.1c0,0.2,0.1,0.4,0.4,0.4c0.1,0,0.2,0,0.2,0l0.1,0.5c-0.1,0-0.3,0-0.5,0c-0.5,0-0.8-0.3-0.9-0.7
				c-0.4,0.5-0.9,0.7-1.5,0.7c-0.9,0-1.5-0.6-1.5-1.3C49,13.3,49.8,12.8,51,12.8z M50.7,15.1c0.8,0,1.3-0.5,1.3-1.3v-0.4
				c-0.3-0.1-0.6-0.1-0.9-0.1c-0.9,0-1.4,0.4-1.4,1C49.7,14.7,50.2,15.1,50.7,15.1z"/>
			<path class="st0" d="M54.6,9.2c0.3,0,0.5,0.2,0.5,0.5c0,0.3-0.2,0.5-0.5,0.5c-0.3,0-0.5-0.2-0.5-0.5C54.1,9.4,54.3,9.2,54.6,9.2z
				 M54.2,11.1H55v4.4h-0.7V11.1z"/>
			<path class="st0" d="M57.1,14.5c0,0.3,0.2,0.5,0.5,0.5c0.1,0,0.3,0,0.4-0.1l0.1,0.6c-0.2,0.1-0.5,0.1-0.7,0.1
				c-0.7,0-1.1-0.4-1.1-1.1V9.1h0.7V14.5z"/>
			<path class="st0" d="M59.4,9.2c0.3,0,0.5,0.2,0.5,0.5c0,0.3-0.2,0.5-0.5,0.5c-0.3,0-0.5-0.2-0.5-0.5C58.9,9.4,59.1,9.2,59.4,9.2z
				 M59,11.1h0.7v4.4H59V11.1z"/>
			<path class="st0" d="M61.2,11.1h0.6l0.1,0.8c0.3-0.6,0.9-0.9,1.6-0.9c1,0,1.7,0.7,1.7,1.7v2.9h-0.7v-2.8c0-0.7-0.5-1.2-1.2-1.2
				c-0.8,0-1.3,0.6-1.3,1.4v2.5h-0.7V11.1z"/>
			<path class="st0" d="M70.4,15.6c0,1.1-0.9,1.9-2.2,1.9c-0.5,0-1.1-0.1-1.8-0.4l0.2-0.5c0.5,0.2,1.1,0.4,1.5,0.4
				c0.9,0,1.5-0.5,1.5-1.3v-0.8c-0.3,0.5-0.8,0.8-1.5,0.8c-1.2,0-2-1-2-2.3s0.8-2.3,2-2.3c0.7,0,1.2,0.3,1.5,0.8l0.1-0.7h0.6V15.6z
				 M68.4,15c0.8,0,1.3-0.6,1.3-1.4v-0.7c0-0.8-0.5-1.4-1.3-1.4c-0.8,0-1.4,0.7-1.4,1.7C66.9,14.3,67.5,15,68.4,15z"/>
			<path class="st0" d="M72.3,14.6c0.3,0,0.5,0.2,0.5,0.5c0,0.3-0.2,0.5-0.5,0.5c-0.3,0-0.5-0.2-0.5-0.5
				C71.7,14.8,72,14.6,72.3,14.6z"/>
			<path class="st0" d="M77.6,9.2c0.7,0,1.4,0.2,2.1,0.7l-0.3,0.5c-0.5-0.4-1.1-0.6-1.7-0.6c-1.4,0-2.3,1-2.3,2.6
				c0,1.5,1,2.6,2.3,2.6c0.6,0,1.1-0.2,1.7-0.6l0.3,0.5c-0.6,0.4-1.4,0.7-2.1,0.7c-1.8,0-3-1.3-3-3.2C74.6,10.6,75.8,9.2,77.6,9.2z"
				/>
			<path class="st0" d="M81.1,9.2c0.3,0,0.5,0.2,0.5,0.5c0,0.3-0.2,0.5-0.5,0.5c-0.3,0-0.5-0.2-0.5-0.5C80.6,9.4,80.8,9.2,81.1,9.2z
				 M80.8,11.1h0.7v4.4h-0.7V11.1z"/>
			<path class="st0" d="M84.1,11.1h1.4v0.6h-1.4v2.6c0,0.5,0.3,0.8,0.8,0.8c0.2,0,0.4,0,0.6-0.1l0.1,0.6c-0.3,0.1-0.6,0.1-0.9,0.1
				c-0.8,0-1.3-0.5-1.3-1.3v-2.7h-0.9v-0.6h0.9V9.7h0.7V11.1z"/>
			<path class="st0" d="M88.4,16.2c-0.4,0.9-0.8,1.3-1.5,1.3c-0.2,0-0.4,0-0.6-0.1l0.1-0.6c0.2,0,0.3,0.1,0.4,0.1
				c0.4,0,0.7-0.3,1-0.9l0.2-0.6l-1.8-4.4h0.8l1.4,3.6l1.4-3.6h0.8L88.4,16.2z"/>
			<path class="st0" d="M91.2,14.6c0.3,0,0.5,0.2,0.5,0.5c0,0.3-0.2,0.5-0.5,0.5c-0.3,0-0.5-0.2-0.5-0.5
				C90.7,14.8,90.9,14.6,91.2,14.6z"/>
		</g>
	</g>
</g>
<g>
	<g>
		<g>
			<g id="XMLID_20_">
				<g id="XMLID_28_" class="st1">
					<g id="XMLID_33_">
						<path id="XMLID_34_" class="st0" d="M16.5,30.7c0-1-0.7-1.8-1.8-1.8c-1,0-1.8,0.7-1.8,1.8c0,1.1,0.7,1.8,1.8,1.8
							C15.7,32.5,16.5,31.7,16.5,30.7z"/>
					</g>
					<g id="XMLID_29_">
						<path id="XMLID_30_" class="st0" d="M23.3,17.3c-3.1,0-5.2,2.1-5.2,5.1c0,3,2.3,5,5.5,5c1.2,0,2.6-0.3,4-0.9l-0.8-1.9
							c-1,0.5-1.9,0.7-2.7,0.7c-1.5,0-2.6-0.8-2.9-1.9L21.1,23h7c0-0.3,0-0.5,0-0.8C28.2,19.3,26.2,17.3,23.3,17.3z M25.3,21.4h-4.2
							l0.1-0.3c0.2-1,1.1-1.7,2.1-1.7c1,0,1.8,0.7,1.9,1.7L25.3,21.4z"/>
					</g>
				</g>
				<g id="XMLID_25_" class="st1">
					<path id="XMLID_26_" class="st0" d="M33.1,31.4V17.3c-2.1,0-3.1,1-3.1,2.8v11.3H33.1z"/>
				</g>
				<g id="XMLID_22_">
					<path id="XMLID_23_" class="st2" d="M16.2,27.1v-9.8c-2.1,0-3.1,1-3.1,2.8v7H16.2z"/>
				</g>
				<path id="XMLID_21_" class="st2" d="M6.8,24.7l4.7,6H8l-4.2-5.6v5.6H0.7V20.1c0-1.8,0.8-2.8,3.1-2.8v6.5l4-5.2
					c0.7-0.9,1.7-1.4,2.9-1.4c0.6,0,1.1,0.1,1.4,0.2L6.8,24.7z"/>
			</g>
		</g>
	</g>
	<g id="XMLID_1_">
		<g id="XMLID_9_">
			<g id="XMLID_17_">
				<path id="XMLID_18_" class="st0" d="M14.7,0.6c-1,0-1.8,0.7-1.8,1.8c0,1,0.7,1.8,1.8,1.8c1.1,0,1.8-0.7,1.8-1.8
					C16.5,1.4,15.7,0.6,14.7,0.6z"/>
			</g>
			<g id="XMLID_14_">
				<path id="XMLID_15_" class="st0" d="M37.1,12.2c-1,0-1.8,0.7-1.8,1.8c0,1,0.7,1.8,1.8,1.8c1.1,0,1.8-0.7,1.8-1.8
					C38.9,13,38.1,12.2,37.1,12.2z"/>
			</g>
			<g id="XMLID_10_">
				<path id="XMLID_11_" class="st0" d="M23.3,5.7c-3.1,0-5.2,2.1-5.2,5.1c0,3,2.3,5,5.5,5c1.2,0,2.6-0.3,4-0.9L26.8,13
					c-1,0.5-1.9,0.7-2.7,0.7c-1.5,0-2.6-0.8-2.9-1.9l-0.1-0.3h7c0-0.3,0-0.5,0-0.8C28.2,7.7,26.2,5.7,23.3,5.7z M25.3,9.9h-4.2
					l0.1-0.3c0.2-1,1.1-1.7,2.1-1.7c1,0,1.8,0.7,1.9,1.7L25.3,9.9z"/>
			</g>
		</g>
		<g id="XMLID_6_">
			<path id="XMLID_7_" class="st0" d="M30,1.7V13c0,1.8,1,2.8,3.1,2.8V1.7H30z"/>
		</g>
		<g id="XMLID_3_">
			<path id="XMLID_4_" class="st0" d="M13.1,6v7c0,1.8,1,2.8,3.1,2.8V6H13.1z"/>
		</g>
		<path id="XMLID_2_" class="st0" d="M6.8,8.4l4.7-6H8L3.8,7.9V2.4H0.7V13c0,1.8,0.8,2.8,3.1,2.8V9.3l4,5.2c0.7,0.9,1.7,1.4,2.9,1.4
			c0.6,0,1.1-0.1,1.4-0.2L6.8,8.4z"/>
	</g>
</g>
<g>
</g>
<g>
</g>
<g>
</g>
<g>
</g>
<g>
</g>
<g>
</g>
</svg>
